<svg width="23" height="17" viewBox="0 0 23 17" fill="none" xmlns="http://www.w3.org/2000/svg">
<path d="M20.7778 0H1.8889C0.847122 0 0 0.847122 0 1.8889V15.1111C0 16.1529 0.847122 17 1.8889 17H20.7778C21.8195 17 22.6667 16.1529 22.6667 15.1111V1.8889C22.6667 0.847122 21.8195 0 20.7778 0ZM1.8889 0.94443H20.7778C20.8474 0.94443 20.9087 0.969797 20.974 0.984141C19.3387 2.4808 13.9162 7.44144 12.0186 9.15114C11.8702 9.28488 11.6308 9.44443 11.3334 9.44443C11.0359 9.44443 10.7966 9.28488 10.6476 9.15069C8.75022 7.44126 3.32744 2.48036 1.69239 0.984229C1.75782 0.969885 1.81927 0.94443 1.8889 0.94443ZM0.94443 15.1111V1.8889C0.94443 1.79638 0.97232 1.71244 0.997289 1.62788C2.24891 2.77343 6.03248 6.23471 8.48579 8.46565C6.04045 10.5662 2.25591 14.1542 0.994323 15.3572C0.972055 15.2769 0.94443 15.1984 0.94443 15.1111ZM20.7778 16.0556H1.8889C1.81347 16.0556 1.7464 16.0293 1.67596 16.0124C2.9796 14.7697 6.78822 11.161 9.19058 9.1058C9.50375 9.38989 9.78983 9.64892 10.0153 9.85212C10.4046 10.2035 10.8602 10.3889 11.3333 10.3889C11.8065 10.3889 12.2621 10.2035 12.6508 9.85256C12.8764 9.64927 13.1627 9.39002 13.4761 9.1058C15.8786 11.1608 19.6867 14.7692 20.9907 16.0124C20.9203 16.0293 20.8533 16.0556 20.7778 16.0556ZM21.7222 15.1111C21.7222 15.1984 21.6946 15.2769 21.6724 15.3572C20.4103 14.1536 16.6262 10.5659 14.1809 8.46569C16.6343 6.23475 20.4173 2.77379 21.6694 1.62779C21.6943 1.71235 21.7222 1.79633 21.7222 1.88886V15.1111V15.1111Z" fill="#585858"/>
</svg>
