<svg width="64" height="61" viewBox="0 0 64 61" fill="none" xmlns="http://www.w3.org/2000/svg">
<path d="M63.8099 34.1272C63.6512 33.8097 63.2544 33.651 62.9369 33.5716C61.1115 33.5716 45.3971 32.9367 45.3971 14.6826C45.3971 14.1271 44.9209 13.6509 44.3654 13.6509C43.8098 13.6509 43.3336 14.1271 43.3336 14.6826C43.3336 32.9367 27.6192 33.5716 25.8732 33.5716C25.6351 33.5716 25.397 33.651 25.2383 33.8097C25.0795 33.8891 25.0002 34.0478 24.9208 34.1272C24.7621 34.4447 24.7621 34.8415 24.9208 35.1589C25.0795 35.4764 25.4764 35.7145 25.8732 35.7145C25.8732 35.7145 25.8732 35.7145 25.9526 35.7145C27.778 35.7145 43.413 36.3494 43.413 54.6035C43.413 55.1591 43.8892 55.6353 44.4447 55.6353C45.0003 55.6353 45.4765 55.1591 45.4765 54.6035C45.4765 36.4288 61.1115 35.7145 62.9369 35.7145C63.3337 35.7145 63.6512 35.4764 63.8893 35.1589C64.048 34.8415 64.048 34.4447 63.8099 34.1272ZM44.3654 46.8257C42.0638 39.286 36.4288 36.032 31.9843 34.6034C36.4288 33.1748 42.0638 29.9208 44.3654 22.3811C46.667 29.9208 52.3019 33.1748 56.7464 34.6034C52.3019 36.032 46.667 39.286 44.3654 46.8257Z" fill="#FFC400"/>
<path d="M31.2699 13.4922C31.8255 13.4922 32.3017 13.016 32.3017 12.381C32.3017 11.8255 31.8255 11.3493 31.2699 11.3493C30.3175 11.3493 21.7461 11.0318 21.7461 1.03175C21.7461 0.476194 21.2699 0 20.7143 0C20.1588 0 19.6826 0.476194 19.6826 1.03175C19.6826 11.0318 11.1111 11.3493 10.1587 11.3493C10.0793 11.3493 10.0793 11.3493 10.0793 11.3493C9.52378 11.4286 9.12695 11.8255 9.12695 12.381C9.12695 12.9366 9.60315 13.4128 10.1587 13.4128C11.1905 13.4128 19.6826 13.7302 19.6826 23.7303C19.6826 24.2859 20.1588 24.7621 20.7143 24.7621C21.1905 24.8414 21.6667 24.3652 21.6667 23.8097C21.6667 13.8096 30.2382 13.4922 31.1906 13.4922H31.2699ZM20.635 18.016C19.3651 15.0001 17.0635 13.3334 14.9206 12.381C17.2222 11.4286 19.3651 9.60324 20.635 6.74608C21.9048 9.76197 24.2064 11.4286 26.3493 12.381C24.0477 13.3334 21.9048 15.1588 20.635 18.016Z" fill="#FFC400"/>
<path d="M22.143 47.1432C21.1906 47.1432 12.6191 46.8258 12.6191 36.8257C12.6191 36.2701 12.1429 35.7939 11.5874 35.7939C11.0318 35.7939 10.5556 36.2701 10.5556 36.8257C10.5556 46.8258 1.98414 47.1432 1.03175 47.1432C0.952387 47.1432 0.952387 47.1432 0.952387 47.1432C0.396828 47.2226 0 47.6194 0 48.175C0 48.7305 0.476194 49.2067 1.03175 49.2067C2.06351 49.2067 10.5556 49.5242 10.5556 59.5242C10.5556 60.0798 11.0318 60.556 11.5874 60.556C12.0636 60.7147 12.5398 60.2385 12.5398 59.6036C12.5398 49.6035 21.1112 49.2861 22.0636 49.2861H22.143C22.6986 49.2861 23.1748 48.8099 23.1748 48.175C23.1748 47.6194 22.6986 47.1432 22.143 47.1432ZM11.508 53.8893C10.1588 50.8734 7.93656 49.2067 5.79369 48.2543C8.09529 47.3019 10.2382 45.4765 11.508 42.6194C12.7779 45.6353 15.0795 47.3019 17.2223 48.2543C14.9207 49.2067 12.7779 51.0321 11.508 53.8893Z" fill="#FFC400"/>
</svg>
