<svg width="55" height="60" viewBox="0 0 55 60" fill="none" xmlns="http://www.w3.org/2000/svg">
<path d="M21.4121 40.5107H23.0681V27.4967H19.6841V28.9907H21.4121V40.5107Z" fill="#FFC400"/>
<path d="M33.2797 40.5107H35.1337L31.2817 34.2467L35.1517 27.9647H33.3157L30.4357 32.8787L27.4117 27.9647H25.5757L29.4277 34.2467L25.5937 40.5107H27.4117L30.2737 35.6147L33.2797 40.5107Z" fill="#FFC400"/>
<path d="M42.8302 13.2599C42.4164 12.8941 42.3775 12.2622 42.7433 11.8484C43.1092 11.4346 43.7411 11.3957 44.1549 11.7615L42.8302 13.2599ZM11.4242 54.3954C10.9726 54.0774 10.8644 53.4535 11.1824 53.002C11.5005 52.5505 12.1243 52.4422 12.5758 52.7603L11.4242 54.3954ZM44.1549 11.7615C51.348 18.1207 54.6193 25.1412 54.9685 31.8516C55.317 38.5478 52.7491 44.8169 48.4833 49.6747C39.9709 59.3685 24.5106 63.6126 11.4242 54.3954L12.5758 52.7603C24.6835 61.2881 39.02 57.4202 46.9805 48.355C50.9513 43.8332 53.289 38.061 52.9712 31.9555C52.6542 25.8641 49.6876 19.3223 42.8302 13.2599L44.1549 11.7615Z" fill="#FFC400"/>
<path d="M23.9626 16.2943C23.6513 16.1171 23.4648 15.7816 23.4791 15.424L23.4791 9.48205C17.4461 10.3512 11.9363 13.386 7.97722 18.02C4.18701 22.441 1.99555 27.9916 1.99555 33.2498C1.99555 36.678 2.91109 40.2635 4.66051 43.6199C6.48001 47.1066 9.07212 50.1314 12.2398 52.4619C12.6808 52.7858 12.7751 53.4056 12.4517 53.846C12.1278 54.2869 11.5081 54.3813 11.0677 54.0573C7.65383 51.5469 4.85973 48.2892 2.8984 44.5327C1.00274 40.8965 1.90495e-06 36.9948 1.71208e-06 33.2493C1.4174e-06 27.5264 2.38296 21.5061 6.47614 16.7325C10.8133 11.6636 16.8667 8.37004 23.4791 7.48209L23.4791 0.991048C23.462 0.632887 23.6491 0.295697 23.962 0.120204C24.2755 -0.0547375 24.6607 -0.0376297 24.957 0.164353L35.9513 7.38055C36.2283 7.56487 36.3944 7.87668 36.3933 8.20945C36.3917 8.54278 36.2234 8.85237 35.9447 9.03449L24.9581 16.2512C24.6607 16.4505 24.2766 16.467 23.9626 16.2943V16.2943ZM33.6671 8.20779L25.457 2.82214L25.457 13.5929L33.6671 8.20779Z" fill="#FFC400"/>
</svg>
