<svg width="67" height="56" viewBox="0 0 67 56" fill="none" xmlns="http://www.w3.org/2000/svg">
<g opacity="0.75">
<path d="M59.0244 20.0576C58.8418 19.7789 58.5311 19.6106 58.1977 19.6106C57.8644 19.6106 57.5532 19.7789 57.3705 20.0576L50.1543 31.0602C49.9545 31.3769 49.9385 31.7754 50.1112 32.1076C50.2796 32.436 50.6123 32.6479 50.981 32.6622H56.9235C56.0195 38.6632 52.9892 44.1399 48.385 48.0929C43.9646 51.8831 38.4133 54.0393 33.1552 54.0393C29.727 54.0393 26.1415 53.1061 22.7862 51.3567C19.2989 49.5344 16.2742 46.939 13.9442 43.7685C13.6219 43.3276 13.0038 43.2316 12.5634 43.5533C12.1225 43.875 12.0264 44.4931 12.3482 44.9341C14.8586 48.3473 18.1163 51.1414 21.8717 53.1022C25.5085 54.9979 29.4102 56.0001 33.1552 56.0001C38.878 56.0001 44.8983 53.6877 49.672 49.5946C54.7121 45.263 58.0013 39.2432 58.9229 32.6622H65.4139C65.782 32.6457 66.1137 32.4349 66.2842 32.1081C66.4542 31.7814 66.4382 31.3891 66.2412 31.0778L59.0244 20.0576ZM52.8121 30.6843L58.1972 22.4737L63.5828 30.6843H52.8121Z" fill="#FFC400"/>
<path d="M16.2943 23.9626C16.1171 23.6513 15.7816 23.4648 15.424 23.4791H9.48205C10.3512 17.4461 13.386 11.9363 18.02 7.97722C22.441 4.187 27.9916 1.99555 33.2498 1.99555C36.678 1.99555 40.2635 2.91109 43.6199 4.66051C47.1066 6.48001 50.1314 9.07212 52.4619 12.2398C52.7858 12.6808 53.4056 12.7751 53.846 12.4517C54.2869 12.1278 54.3813 11.5081 54.0573 11.0677C51.5469 7.65382 48.2892 4.85973 44.5327 2.8984C40.8965 1.00274 36.9948 0 33.2493 0C27.5264 0 21.5061 2.38296 16.7325 6.47614C11.6636 10.8133 8.37004 16.8667 7.48209 23.4791H0.991049C0.632888 23.462 0.295698 23.6491 0.120205 23.962C-0.0547366 24.2755 -0.0376287 24.6607 0.164354 24.957L7.38055 35.9513C7.56487 36.2283 7.87668 36.3944 8.20945 36.3933C8.54278 36.3917 8.85238 36.2234 9.03449 35.9447L16.2512 24.9581C16.4505 24.6607 16.467 24.2766 16.2943 23.9626V23.9626ZM8.2078 33.6671L2.82214 25.457H13.5929L8.2078 33.6671Z" fill="#FFC400"/>
</g>
</svg>
