<svg width="22" height="22" viewBox="0 0 22 22" fill="none" xmlns="http://www.w3.org/2000/svg">
<path d="M21.3556 10.3555C20.9996 10.3555 20.711 10.6441 20.711 11.0001C20.711 16.3547 16.3547 20.711 11.0001 20.711C5.64542 20.711 1.28911 16.3547 1.28911 11.0001C1.28911 5.64542 5.64542 1.28911 11.0001 1.28911C12.6328 1.28911 14.2211 1.69452 15.6389 2.46701L14.8331 3.2728C14.6488 3.45714 14.5937 3.73433 14.6934 3.97522C14.7932 4.21606 15.0282 4.37311 15.2889 4.37311H18.3729C18.7288 4.37311 19.0174 4.08453 19.0174 3.72858V0.644573C19.0174 0.383881 18.8604 0.148884 18.6195 0.0491107C18.3786 -0.0507059 18.1014 0.00446612 17.9171 0.188845L16.5843 1.52161C14.8961 0.524862 12.9767 8.32894e-05 11 8.32894e-05C8.06181 8.32894e-05 5.29943 1.1443 3.2218 3.22189C1.14417 5.29956 0 8.0619 0 11.0001C0 13.9383 1.14417 16.7007 3.2218 18.7783C5.29948 20.856 8.06181 22.0002 11 22.0002C13.9382 22.0002 16.7006 20.856 18.7782 18.7783C20.8559 16.7007 22 13.9383 22 11.0001C22.0001 10.6441 21.7115 10.3555 21.3556 10.3555Z" fill="#585858"/>
<path d="M15.1422 10.3556H11.6445V6.85791C11.6445 6.50196 11.356 6.21338 11 6.21338C10.644 6.21338 10.3555 6.50196 10.3555 6.85791V11.0001C10.3555 11.3561 10.644 11.6446 11 11.6446H15.1422C15.4981 11.6446 15.7867 11.3561 15.7867 11.0001C15.7867 10.6442 15.4981 10.3556 15.1422 10.3556Z" fill="#585858"/>
</svg>
