<svg width="16" height="20" viewBox="0 0 16 20" fill="none" xmlns="http://www.w3.org/2000/svg">
<path d="M7.75 0C3.61426 0 0.25 3.36465 0.25 7.5C0.25 13.033 7.16977 19.6094 7.46438 19.8869C7.54492 19.9621 7.64746 20 7.75 20C7.85254 20 7.95508 19.9621 8.03566 19.8869C8.33023 19.6094 15.25 13.033 15.25 7.5C15.25 3.36465 11.8857 0 7.75 0ZM7.75 19.0002C6.44059 17.6929 1.08332 12.0638 1.08332 7.5C1.08332 3.82406 4.07406 0.83332 7.75 0.83332C11.4259 0.83332 14.4167 3.82406 14.4167 7.5C14.4167 12.0638 9.05941 17.6929 7.75 19.0002Z" fill="#585858"/>
<path d="M7.75018 3.33325C5.45279 3.33325 3.5835 5.20255 3.5835 7.49993C3.5835 9.79731 5.45283 11.6666 7.75018 11.6666C10.0475 11.6666 11.9169 9.79731 11.9169 7.49993C11.9169 5.20255 10.0476 3.33325 7.75018 3.33325ZM7.75018 10.8333C5.91178 10.8333 4.41686 9.3379 4.41686 7.49993C4.41686 5.66196 5.91182 4.16661 7.75018 4.16661C9.58854 4.16661 11.0835 5.66196 11.0835 7.49993C11.0835 9.3379 9.58857 10.8333 7.75018 10.8333Z" fill="#585858"/>
</svg>
