<svg width="52" height="58" viewBox="0 0 52 58" fill="none" xmlns="http://www.w3.org/2000/svg">
<path d="M40.4091 12.7187C39.9977 12.3502 39.963 11.7179 40.3315 11.3066C40.7001 10.8953 41.3323 10.8605 41.7436 11.2291L40.4091 12.7187ZM10.7524 52.0927C10.3029 51.7718 10.1986 51.1473 10.5194 50.6978C10.8403 50.2483 11.4648 50.144 11.9143 50.4648L10.7524 52.0927ZM41.7436 11.2291C48.546 17.3233 51.64 24.052 51.9703 30.4832C52.2998 36.9004 49.8716 42.9092 45.8359 47.5664C37.7828 56.8599 23.1441 60.9375 10.7524 52.0927L11.9143 50.4648C23.317 58.6036 36.8198 54.9172 44.3245 46.2567C48.0677 41.9369 50.2726 36.4211 49.9729 30.5858C49.674 24.7645 46.8766 18.5129 40.4091 12.7187L41.7436 11.2291Z" fill="#585858"/>
<path d="M22.6313 15.5951C22.3373 15.4255 22.1612 15.1044 22.1747 14.7621L22.1747 9.07517C16.4769 9.90706 11.2732 12.8115 7.53404 17.2467C3.95439 21.478 1.88468 26.7905 1.88468 31.823C1.88468 35.1041 2.74937 38.5357 4.40159 41.7481C6.12001 45.0852 8.56812 47.9802 11.5598 50.2107C11.9763 50.5208 12.0654 51.1139 11.76 51.5354C11.454 51.9574 10.8687 52.0477 10.4528 51.7377C7.22862 49.335 4.58975 46.2171 2.73738 42.6218C0.947034 39.1416 1.91336e-06 35.4073 1.71965e-06 31.8225C1.42366e-06 26.3452 2.25057 20.5833 6.11636 16.0145C10.2125 11.1631 15.9296 8.01088 22.1747 7.16103L22.1747 0.948521C22.1586 0.60573 22.3353 0.283009 22.6308 0.115046C22.9268 -0.0523886 23.2906 -0.0360149 23.5705 0.157301L33.954 7.06384C34.2156 7.24026 34.3725 7.53868 34.3715 7.85718C34.3699 8.1762 34.211 8.47251 33.9477 8.64681L23.5716 15.5539C23.2906 15.7446 22.9279 15.7604 22.6313 15.5951V15.5951ZM31.7967 7.85559L24.0427 2.70104L24.0427 13.0096L31.7967 7.85559Z" fill="#585858"/>
<path d="M26 22V34.0909L36 39.5" stroke="#585858" stroke-width="2" stroke-linecap="round"/>
</svg>
