<svg width="68" height="66" viewBox="0 0 68 66" fill="none" xmlns="http://www.w3.org/2000/svg">
<mask id="path-1-outside-1" maskUnits="userSpaceOnUse" x="20.842" y="0" width="48" height="66" fill="black">
<rect fill="white" x="20.842" width="48" height="66"/>
<path d="M24.5804 64.9934C24.4844 64.9934 24.3896 64.9726 24.3024 64.9325C24.2152 64.8925 24.1377 64.8341 24.0753 64.7613C24.0129 64.6885 23.967 64.6031 23.9408 64.5109C23.9146 64.4187 23.9087 64.322 23.9234 64.2273C23.9535 64.0659 24.0404 63.9206 24.1685 63.8176C24.2965 63.7146 24.4572 63.6607 24.6216 63.6657H45.9702L41.8803 62.3699L22.309 56.1525C22.1707 56.1094 22.0503 56.0225 21.9661 55.9048C21.8818 55.7872 21.8384 55.6453 21.8423 55.5008C21.8462 55.3562 21.8973 55.2169 21.9878 55.104C22.0782 54.9911 22.2032 54.9108 22.3436 54.8752C22.4234 54.854 24.1482 54.3787 26.2134 52.9701C28.5399 51.3892 30.4128 49.2297 31.6472 46.7048L31.9863 46.0078L30.0979 45.4077C29.9498 45.356 29.8248 45.2538 29.745 45.119C29.6651 44.9843 29.6356 44.8257 29.6615 44.6712C29.6874 44.5168 29.7672 44.3765 29.8867 44.2751C30.0063 44.1737 30.1578 44.1178 30.3147 44.1172C30.3914 44.1171 30.4677 44.1292 30.5407 44.153L32.4783 44.7691L32.731 44.2553C34.5529 40.5537 37.803 38.075 42.129 37.0859C43.4824 36.782 44.8643 36.6218 46.2515 36.6079L46.814 36.6013L46.9004 36.0463C46.913 35.9619 46.9317 35.8785 46.9563 35.7967L49.4205 28.0644C49.5196 27.7576 49.7054 27.4859 49.9554 27.282C50.2055 27.078 50.5092 26.9505 50.8301 26.9147L51.2636 26.8669L59.0871 1.46999C59.1287 1.33381 59.2132 1.2146 59.3279 1.12997C59.4426 1.04534 59.5815 0.999776 59.7241 1H67.4372L67.6366 1.26553C67.6985 1.34958 67.7396 1.44699 67.7567 1.54986C67.7738 1.65274 67.7664 1.75819 67.7351 1.85767L59.115 29.3522L59.4661 29.6364C59.7267 29.848 59.9178 30.1328 60.0148 30.4539C60.1117 30.7751 60.1101 31.1178 60.01 31.438L57.5405 39.1703C57.5018 39.2919 57.4491 39.4086 57.3836 39.5182L57.091 40.0054L57.5285 40.3692C59.635 42.1151 61.2175 44.1159 62.2322 46.3158C63.3226 48.6817 63.7828 51.3118 63.6006 54.1344L63.5673 54.6522L64.7482 55.0266C64.8033 55.0443 64.8532 55.075 64.8937 55.1162C64.9342 55.1573 64.9642 55.2077 64.981 55.2629C65.0264 55.3838 65.0422 55.5138 65.0269 55.642C65.0116 55.7702 64.9658 55.8929 64.8932 55.9998C64.8104 56.1105 64.695 56.1926 64.5632 56.2348C64.4313 56.2769 64.2896 56.2769 64.1578 56.2348L63.3599 55.9812L63.171 56.6357C62.4547 59.0493 60.9768 61.1673 58.9572 62.6745C56.9377 64.1817 54.4846 64.9973 51.9631 65L24.5804 64.9934ZM33.0169 46.9371C31.507 50.1955 29.0326 52.9132 25.9275 54.7239L24.6322 55.4767L48.7928 63.1519C50.2954 63.633 51.8883 63.765 53.4498 63.5376C55.0113 63.3103 56.5001 62.7297 57.8025 61.8402C59.7953 60.4922 61.2488 58.4864 61.9077 56.175L62.0819 55.5563L53.7278 52.901L53.5018 53.4825C53.043 54.6628 52.136 56.3038 50.4285 57.4164C50.3554 57.4656 50.2733 57.4999 50.1869 57.5171C50.1004 57.5344 50.0114 57.5343 49.925 57.5169C49.8386 57.4995 49.7565 57.4651 49.6835 57.4157C49.6105 57.3664 49.5481 57.303 49.4999 57.2293C49.4517 57.1557 49.4186 57.0732 49.4026 56.9866C49.3866 56.9001 49.388 56.8112 49.4067 56.7252C49.4255 56.6392 49.4611 56.5578 49.5117 56.4857C49.5622 56.4135 49.6266 56.3522 49.7011 56.3051C51.0509 55.4262 51.8009 54.1158 52.1999 53.1772L52.4765 52.5133L44.9934 50.1235L44.7275 50.6055C43.8857 52.1562 42.0239 54.943 39.0092 56.1896C38.9288 56.2237 38.8424 56.2413 38.7552 56.2414C38.6037 56.2383 38.4578 56.1836 38.3417 56.0864C38.2255 55.9892 38.1462 55.8553 38.1167 55.7069C38.0872 55.5585 38.1094 55.4045 38.1796 55.2704C38.2497 55.1363 38.3636 55.0301 38.5025 54.9695C40.8084 54.0149 42.3803 51.9809 43.2899 50.4422L43.7155 49.7239L33.2589 46.4048L33.0169 46.9371ZM46.5028 37.9449C45.1035 37.9399 43.7082 38.0954 42.3444 38.4082C38.5583 39.2925 35.7923 41.3291 34.1246 44.4677L33.7496 45.17L62.2774 54.226L62.3 53.3418C62.433 47.9435 59.9861 43.5025 55.0244 40.1408L54.9446 40.0864L48.5548 38.0564L48.4949 38.0498C47.8338 37.9724 47.1685 37.9352 46.5028 37.9382V37.9449ZM56.1734 39.0893L58.8398 30.7251L50.7822 28.1653L48.1146 36.5296L48.9045 36.7805L48.8819 36.7739L52.3674 37.8812L55.3835 38.8384L56.1734 39.0893ZM52.511 27.2877L57.8304 28.9765L66.1858 2.32766H60.2015L52.511 27.2877Z"/>
</mask>
<path d="M24.5804 64.9934C24.4844 64.9934 24.3896 64.9726 24.3024 64.9325C24.2152 64.8925 24.1377 64.8341 24.0753 64.7613C24.0129 64.6885 23.967 64.6031 23.9408 64.5109C23.9146 64.4187 23.9087 64.322 23.9234 64.2273C23.9535 64.0659 24.0404 63.9206 24.1685 63.8176C24.2965 63.7146 24.4572 63.6607 24.6216 63.6657H45.9702L41.8803 62.3699L22.309 56.1525C22.1707 56.1094 22.0503 56.0225 21.9661 55.9048C21.8818 55.7872 21.8384 55.6453 21.8423 55.5008C21.8462 55.3562 21.8973 55.2169 21.9878 55.104C22.0782 54.9911 22.2032 54.9108 22.3436 54.8752C22.4234 54.854 24.1482 54.3787 26.2134 52.9701C28.5399 51.3892 30.4128 49.2297 31.6472 46.7048L31.9863 46.0078L30.0979 45.4077C29.9498 45.356 29.8248 45.2538 29.745 45.119C29.6651 44.9843 29.6356 44.8257 29.6615 44.6712C29.6874 44.5168 29.7672 44.3765 29.8867 44.2751C30.0063 44.1737 30.1578 44.1178 30.3147 44.1172C30.3914 44.1171 30.4677 44.1292 30.5407 44.153L32.4783 44.7691L32.731 44.2553C34.5529 40.5537 37.803 38.075 42.129 37.0859C43.4824 36.782 44.8643 36.6218 46.2515 36.6079L46.814 36.6013L46.9004 36.0463C46.913 35.9619 46.9317 35.8785 46.9563 35.7967L49.4205 28.0644C49.5196 27.7576 49.7054 27.4859 49.9554 27.282C50.2055 27.078 50.5092 26.9505 50.8301 26.9147L51.2636 26.8669L59.0871 1.46999C59.1287 1.33381 59.2132 1.2146 59.3279 1.12997C59.4426 1.04534 59.5815 0.999776 59.7241 1H67.4372L67.6366 1.26553C67.6985 1.34958 67.7396 1.44699 67.7567 1.54986C67.7738 1.65274 67.7664 1.75819 67.7351 1.85767L59.115 29.3522L59.4661 29.6364C59.7267 29.848 59.9178 30.1328 60.0148 30.4539C60.1117 30.7751 60.1101 31.1178 60.01 31.438L57.5405 39.1703C57.5018 39.2919 57.4491 39.4086 57.3836 39.5182L57.091 40.0054L57.5285 40.3692C59.635 42.1151 61.2175 44.1159 62.2322 46.3158C63.3226 48.6817 63.7828 51.3118 63.6006 54.1344L63.5673 54.6522L64.7482 55.0266C64.8033 55.0443 64.8532 55.075 64.8937 55.1162C64.9342 55.1573 64.9642 55.2077 64.981 55.2629C65.0264 55.3838 65.0422 55.5138 65.0269 55.642C65.0116 55.7702 64.9658 55.8929 64.8932 55.9998C64.8104 56.1105 64.695 56.1926 64.5632 56.2348C64.4313 56.2769 64.2896 56.2769 64.1578 56.2348L63.3599 55.9812L63.171 56.6357C62.4547 59.0493 60.9768 61.1673 58.9572 62.6745C56.9377 64.1817 54.4846 64.9973 51.9631 65L24.5804 64.9934ZM33.0169 46.9371C31.507 50.1955 29.0326 52.9132 25.9275 54.7239L24.6322 55.4767L48.7928 63.1519C50.2954 63.633 51.8883 63.765 53.4498 63.5376C55.0113 63.3103 56.5001 62.7297 57.8025 61.8402C59.7953 60.4922 61.2488 58.4864 61.9077 56.175L62.0819 55.5563L53.7278 52.901L53.5018 53.4825C53.043 54.6628 52.136 56.3038 50.4285 57.4164C50.3554 57.4656 50.2733 57.4999 50.1869 57.5171C50.1004 57.5344 50.0114 57.5343 49.925 57.5169C49.8386 57.4995 49.7565 57.4651 49.6835 57.4157C49.6105 57.3664 49.5481 57.303 49.4999 57.2293C49.4517 57.1557 49.4186 57.0732 49.4026 56.9866C49.3866 56.9001 49.388 56.8112 49.4067 56.7252C49.4255 56.6392 49.4611 56.5578 49.5117 56.4857C49.5622 56.4135 49.6266 56.3522 49.7011 56.3051C51.0509 55.4262 51.8009 54.1158 52.1999 53.1772L52.4765 52.5133L44.9934 50.1235L44.7275 50.6055C43.8857 52.1562 42.0239 54.943 39.0092 56.1896C38.9288 56.2237 38.8424 56.2413 38.7552 56.2414C38.6037 56.2383 38.4578 56.1836 38.3417 56.0864C38.2255 55.9892 38.1462 55.8553 38.1167 55.7069C38.0872 55.5585 38.1094 55.4045 38.1796 55.2704C38.2497 55.1363 38.3636 55.0301 38.5025 54.9695C40.8084 54.0149 42.3803 51.9809 43.2899 50.4422L43.7155 49.7239L33.2589 46.4048L33.0169 46.9371ZM46.5028 37.9449C45.1035 37.9399 43.7082 38.0954 42.3444 38.4082C38.5583 39.2925 35.7923 41.3291 34.1246 44.4677L33.7496 45.17L62.2774 54.226L62.3 53.3418C62.433 47.9435 59.9861 43.5025 55.0244 40.1408L54.9446 40.0864L48.5548 38.0564L48.4949 38.0498C47.8338 37.9724 47.1685 37.9352 46.5028 37.9382V37.9449ZM56.1734 39.0893L58.8398 30.7251L50.7822 28.1653L48.1146 36.5296L48.9045 36.7805L48.8819 36.7739L52.3674 37.8812L55.3835 38.8384L56.1734 39.0893ZM52.511 27.2877L57.8304 28.9765L66.1858 2.32766H60.2015L52.511 27.2877Z" fill="#585858"/>
<path d="M24.5804 64.9934C24.4844 64.9934 24.3896 64.9726 24.3024 64.9325C24.2152 64.8925 24.1377 64.8341 24.0753 64.7613C24.0129 64.6885 23.967 64.6031 23.9408 64.5109C23.9146 64.4187 23.9087 64.322 23.9234 64.2273C23.9535 64.0659 24.0404 63.9206 24.1685 63.8176C24.2965 63.7146 24.4572 63.6607 24.6216 63.6657H45.9702L41.8803 62.3699L22.309 56.1525C22.1707 56.1094 22.0503 56.0225 21.9661 55.9048C21.8818 55.7872 21.8384 55.6453 21.8423 55.5008C21.8462 55.3562 21.8973 55.2169 21.9878 55.104C22.0782 54.9911 22.2032 54.9108 22.3436 54.8752C22.4234 54.854 24.1482 54.3787 26.2134 52.9701C28.5399 51.3892 30.4128 49.2297 31.6472 46.7048L31.9863 46.0078L30.0979 45.4077C29.9498 45.356 29.8248 45.2538 29.745 45.119C29.6651 44.9843 29.6356 44.8257 29.6615 44.6712C29.6874 44.5168 29.7672 44.3765 29.8867 44.2751C30.0063 44.1737 30.1578 44.1178 30.3147 44.1172C30.3914 44.1171 30.4677 44.1292 30.5407 44.153L32.4783 44.7691L32.731 44.2553C34.5529 40.5537 37.803 38.075 42.129 37.0859C43.4824 36.782 44.8643 36.6218 46.2515 36.6079L46.814 36.6013L46.9004 36.0463C46.913 35.9619 46.9317 35.8785 46.9563 35.7967L49.4205 28.0644C49.5196 27.7576 49.7054 27.4859 49.9554 27.282C50.2055 27.078 50.5092 26.9505 50.8301 26.9147L51.2636 26.8669L59.0871 1.46999C59.1287 1.33381 59.2132 1.2146 59.3279 1.12997C59.4426 1.04534 59.5815 0.999776 59.7241 1H67.4372L67.6366 1.26553C67.6985 1.34958 67.7396 1.44699 67.7567 1.54986C67.7738 1.65274 67.7664 1.75819 67.7351 1.85767L59.115 29.3522L59.4661 29.6364C59.7267 29.848 59.9178 30.1328 60.0148 30.4539C60.1117 30.7751 60.1101 31.1178 60.01 31.438L57.5405 39.1703C57.5018 39.2919 57.4491 39.4086 57.3836 39.5182L57.091 40.0054L57.5285 40.3692C59.635 42.1151 61.2175 44.1159 62.2322 46.3158C63.3226 48.6817 63.7828 51.3118 63.6006 54.1344L63.5673 54.6522L64.7482 55.0266C64.8033 55.0443 64.8532 55.075 64.8937 55.1162C64.9342 55.1573 64.9642 55.2077 64.981 55.2629C65.0264 55.3838 65.0422 55.5138 65.0269 55.642C65.0116 55.7702 64.9658 55.8929 64.8932 55.9998C64.8104 56.1105 64.695 56.1926 64.5632 56.2348C64.4313 56.2769 64.2896 56.2769 64.1578 56.2348L63.3599 55.9812L63.171 56.6357C62.4547 59.0493 60.9768 61.1673 58.9572 62.6745C56.9377 64.1817 54.4846 64.9973 51.9631 65L24.5804 64.9934ZM33.0169 46.9371C31.507 50.1955 29.0326 52.9132 25.9275 54.7239L24.6322 55.4767L48.7928 63.1519C50.2954 63.633 51.8883 63.765 53.4498 63.5376C55.0113 63.3103 56.5001 62.7297 57.8025 61.8402C59.7953 60.4922 61.2488 58.4864 61.9077 56.175L62.0819 55.5563L53.7278 52.901L53.5018 53.4825C53.043 54.6628 52.136 56.3038 50.4285 57.4164C50.3554 57.4656 50.2733 57.4999 50.1869 57.5171C50.1004 57.5344 50.0114 57.5343 49.925 57.5169C49.8386 57.4995 49.7565 57.4651 49.6835 57.4157C49.6105 57.3664 49.5481 57.303 49.4999 57.2293C49.4517 57.1557 49.4186 57.0732 49.4026 56.9866C49.3866 56.9001 49.388 56.8112 49.4067 56.7252C49.4255 56.6392 49.4611 56.5578 49.5117 56.4857C49.5622 56.4135 49.6266 56.3522 49.7011 56.3051C51.0509 55.4262 51.8009 54.1158 52.1999 53.1772L52.4765 52.5133L44.9934 50.1235L44.7275 50.6055C43.8857 52.1562 42.0239 54.943 39.0092 56.1896C38.9288 56.2237 38.8424 56.2413 38.7552 56.2414C38.6037 56.2383 38.4578 56.1836 38.3417 56.0864C38.2255 55.9892 38.1462 55.8553 38.1167 55.7069C38.0872 55.5585 38.1094 55.4045 38.1796 55.2704C38.2497 55.1363 38.3636 55.0301 38.5025 54.9695C40.8084 54.0149 42.3803 51.9809 43.2899 50.4422L43.7155 49.7239L33.2589 46.4048L33.0169 46.9371ZM46.5028 37.9449C45.1035 37.9399 43.7082 38.0954 42.3444 38.4082C38.5583 39.2925 35.7923 41.3291 34.1246 44.4677L33.7496 45.17L62.2774 54.226L62.3 53.3418C62.433 47.9435 59.9861 43.5025 55.0244 40.1408L54.9446 40.0864L48.5548 38.0564L48.4949 38.0498C47.8338 37.9724 47.1685 37.9352 46.5028 37.9382V37.9449ZM56.1734 39.0893L58.8398 30.7251L50.7822 28.1653L48.1146 36.5296L48.9045 36.7805L48.8819 36.7739L52.3674 37.8812L55.3835 38.8384L56.1734 39.0893ZM52.511 27.2877L57.8304 28.9765L66.1858 2.32766H60.2015L52.511 27.2877Z" stroke="#585858" stroke-width="0.2" mask="url(#path-1-outside-1)"/>
<path d="M4.658 56.2809H4.65794C3.71545 56.2798 2.80866 55.9208 2.1215 55.2767C1.43434 54.6327 1.01826 53.7518 0.957687 52.8127M4.658 56.2809L1.98236 50.113C2.33941 49.7379 2.76933 49.4394 3.24583 49.2358C3.72234 49.0322 4.23543 48.9277 4.75375 48.9288H5.28568M4.658 56.2809H16.0819C16.2581 56.2861 16.4303 56.2284 16.5677 56.1181C16.7052 56.0077 16.7987 55.8518 16.8313 55.6785L16.8313 55.6785L16.8316 55.677C16.8475 55.5752 16.8411 55.4711 16.8129 55.372C16.7847 55.2729 16.7353 55.1811 16.6682 55.1028C16.6011 55.0245 16.5178 54.9617 16.4241 54.9186C16.3304 54.8755 16.2284 54.8532 16.1252 54.8532L4.71119 54.8532L4.71094 54.8532C4.13703 54.8561 3.58237 54.6468 3.15381 54.2658C2.72537 53.8848 2.45326 53.3591 2.38983 52.7899C2.36119 52.4752 2.39847 52.158 2.49929 51.8584C2.60017 51.5587 2.76245 51.2832 2.97582 51.0496C3.18918 50.8159 3.44894 50.6292 3.73857 50.5012C4.02818 50.3733 4.3413 50.3069 4.658 50.3064C4.65802 50.3064 4.65805 50.3064 4.65808 50.3064L5.23797 50.3064C5.41612 50.3147 5.59128 50.2584 5.73122 50.1479C5.87148 50.0372 5.96687 49.8795 5.99975 49.704L5.99977 49.704L6.00001 49.7025C6.01602 49.6 6.00945 49.4952 5.98076 49.3955C5.95207 49.2957 5.90194 49.2035 5.83388 49.125C5.76582 49.0466 5.68147 48.984 5.58669 48.9414C5.492 48.899 5.38919 48.8776 5.28539 48.8788M4.658 56.2809L5.28568 48.9288M0.957687 52.8127L1.00758 52.8095L0.957689 52.8128C0.957689 52.8128 0.957688 52.8127 0.957687 52.8127ZM0.957687 52.8127C0.92515 52.3136 0.996136 51.8132 1.1662 51.3428C1.33627 50.8723 1.60177 50.442 1.94606 50.0786L1.94614 50.0786C2.30788 49.6985 2.74344 49.3961 3.22619 49.1898C3.70892 48.9836 4.22871 48.8777 4.7538 48.8788M4.7538 48.8788C4.75381 48.8788 4.75383 48.8788 4.75385 48.8788L4.75375 48.9287V48.8788H4.7538ZM4.7538 48.8788H5.28539M5.28539 48.8788C5.28529 48.8788 5.28519 48.8788 5.28509 48.8788L5.28568 48.9288M5.28539 48.8788H5.28568V48.9288M16.7822 55.6693C16.7969 55.5746 16.791 55.4779 16.7648 55.3857C16.7386 55.2935 16.6927 55.2081 16.6303 55.1353C16.5679 55.0626 16.4904 55.0041 16.4032 54.9641C16.316 54.924 16.2212 54.9032 16.1252 54.9032H4.71119L16.7822 55.6693ZM16.7822 55.6693C16.7518 55.8308 16.6646 55.9761 16.5364 56.0791C16.4081 56.1821 16.2472 56.2359 16.0827 56.2309L16.7822 55.6693Z" fill="#585858" stroke="#585858" stroke-width="0.1"/>
<path d="M17.2143 28.2556L17.19 28.2119C17.0608 28.284 14.1271 29.9846 14.127 34.1143C14.1136 35.2676 14.3832 36.4067 14.9122 37.4322C15.4412 38.4577 16.2135 39.3384 17.1619 39.9973L17.1618 39.9974L17.1641 39.9988C17.2774 40.0689 17.4082 40.106 17.5415 40.1059M17.2143 28.2556L17.1898 28.212C17.2971 28.1515 17.4182 28.1197 17.5415 28.1197C17.6647 28.1197 17.7859 28.1515 17.8932 28.212L17.8686 28.2556M17.2143 28.2556C17.0907 28.3246 14.177 30.0121 14.177 34.1146C14.1637 35.2599 14.4313 36.391 14.9566 37.4093C15.4819 38.4275 16.2488 39.302 17.1904 39.9563H17.8926C18.8342 39.302 19.6011 38.4275 20.1264 37.4093C20.6517 36.391 20.9193 35.2599 20.906 34.1146C20.906 30.0147 17.9923 28.3246 17.8686 28.2556M17.2143 28.2556C17.3142 28.1993 17.4268 28.1697 17.5415 28.1697C17.6561 28.1697 17.7688 28.1993 17.8686 28.2556M17.8686 28.2556L17.893 28.2119C18.0222 28.2841 20.9558 29.9872 20.956 34.1143C20.9694 35.2676 20.6998 36.4067 20.1708 37.4322C19.6418 38.4577 18.8694 39.3384 17.9211 39.9973L17.9189 39.9989L17.9189 39.9988C17.8055 40.0689 17.6748 40.106 17.5415 40.1059M17.5415 40.1059C17.5415 40.1059 17.5414 40.1059 17.5414 40.1059L17.5415 40.0559L17.5415 40.1059C17.5415 40.1059 17.5415 40.1059 17.5415 40.1059ZM15.5568 34.1165H15.5568V34.1159C15.5568 32.1161 16.3956 30.8335 17.0973 30.1106L17.5387 29.6576L17.9803 30.1133L17.9803 30.1133L17.9809 30.1138C18.103 30.2357 18.22 30.3696 18.3309 30.5079C19.1224 31.5073 19.5261 32.7202 19.5261 34.1159L19.5261 34.1165C19.5434 35.5829 18.9944 36.9997 17.993 38.0727L18.0281 38.1055L17.993 38.0727L17.5415 38.5566L17.0914 38.0728L17.0913 38.0727C16.0889 37.0003 15.5392 35.5832 15.5568 34.1165Z" fill="#585858" stroke="#585858" stroke-width="0.1"/>
<path d="M30.0454 20.3143L30.0451 20.3146L30.0451 20.3146C29.4136 20.934 28.9114 21.6722 28.5672 22.4864C28.2231 23.3007 28.0439 24.1749 28.04 25.0586V25.6723L28.6548 25.6723L28.655 25.6723M30.0454 20.3143L35.501 18.8796C35.5249 19.8912 35.2909 21.8655 33.4491 23.7029C32.8234 24.3393 32.0776 24.8455 31.2546 25.1921C30.4317 25.5388 29.5481 25.719 28.655 25.7223V25.6723M30.0454 20.3143C31.7284 18.6341 33.5113 18.2817 34.7097 18.2817H34.8515L34.8509 18.2816L34.852 18.2317V18.2817L35.4363 18.2951M30.0454 20.3143L35.451 18.8807M28.655 25.6723C29.5415 25.669 30.4185 25.4901 31.2352 25.1461C32.0521 24.802 32.7924 24.2996 33.4134 23.6679L33.4137 23.6676C35.2431 21.8425 35.4747 19.8831 35.451 18.8807M28.655 25.6723L35.451 18.8807M35.4363 18.2951L35.451 18.8807M35.4363 18.2951L35.4839 18.2962L35.485 18.2463L35.4351 18.2475L35.4363 18.2951ZM27.2764 26.9672L27.2764 26.9672L34.3839 24.6443C37.6726 21.3623 36.6965 17.6886 36.654 17.5346C36.6234 17.4245 36.5649 17.3241 36.484 17.2431C36.4032 17.1622 36.3028 17.1034 36.1925 17.0726C35.7065 16.9571 35.208 16.9022 34.7084 16.9093V16.8593C34.7083 16.8593 34.7082 16.8593 34.7081 16.8593C33.2352 16.8594 31.0565 17.2849 29.0346 19.3035C25.8597 22.4732 26.7062 26.2709 26.7445 26.4347C26.7747 26.5641 26.8406 26.6825 26.9345 26.7766C27.0285 26.8707 27.1469 26.9367 27.2764 26.9672ZM31.7736 26.4731C32.7671 26.0584 33.6669 25.4484 34.4195 24.6794L28.6364 27.0434L28.6361 27.0933C28.6363 27.0933 28.6364 27.0934 28.6366 27.0934C29.7133 27.0987 30.7802 26.8878 31.7736 26.4731Z" fill="#585858" stroke="#585858" stroke-width="0.1"/>
<path d="M14.8419 49.2442H14.8419H18.6578C18.8338 49.2494 19.0059 49.1916 19.143 49.0813C19.2804 48.9708 19.3736 48.8149 19.4059 48.6418L19.4059 48.6418L19.4061 48.6403C19.422 48.5385 19.4157 48.4345 19.3875 48.3353C19.3593 48.2362 19.3099 48.1444 19.2428 48.0661C19.1757 47.9878 19.0924 47.925 18.9987 47.8819C18.9049 47.8388 18.803 47.8165 18.6998 47.8165H14.8852C14.7091 47.8113 14.5369 47.869 14.3995 47.9793C14.2619 48.0898 14.1684 48.2457 14.1359 48.4189L14.1358 48.4189L14.1356 48.4204C14.1197 48.5222 14.1261 48.6263 14.1543 48.7254C14.1825 48.8245 14.2318 48.9164 14.2989 48.9946C14.3661 49.0729 14.4493 49.1357 14.5431 49.1788C14.6368 49.2219 14.7388 49.2442 14.8419 49.2442Z" fill="#585858" stroke="#585858" stroke-width="0.1"/>
<path d="M18.3969 64.9288C18.4853 64.9725 18.5811 64.9992 18.6791 65.0076V65.0129L18.7291 65.0129C18.8663 65.0127 19 64.9689 19.1107 64.8879C19.2342 64.8005 19.3267 64.6761 19.3749 64.5327C19.4231 64.3892 19.4244 64.2341 19.3786 64.0898C19.3327 63.9456 19.2421 63.8196 19.1199 63.7301C18.9977 63.6406 18.8501 63.5922 18.6986 63.5918H18.6985H18.6519V63.5917L18.6479 63.592C18.4951 63.6044 18.3502 63.6649 18.2341 63.7649C18.1181 63.8649 18.0369 63.999 18.0022 64.148C17.9782 64.2462 17.9775 64.3486 17.9999 64.4471C18.0224 64.5456 18.0675 64.6375 18.1317 64.7156C18.2035 64.8051 18.294 64.8779 18.3969 64.9288Z" fill="#585858" stroke="#585858" stroke-width="0.1"/>
</svg>
