<svg width="68" height="66" viewBox="0 0 68 66" fill="none" xmlns="http://www.w3.org/2000/svg">
<mask id="path-1-outside-1" maskUnits="userSpaceOnUse" x="20.8418" y="0" width="48" height="66" fill="black">
<rect fill="white" x="20.8418" width="48" height="66"/>
<path d="M24.5801 64.9934C24.4842 64.9934 24.3893 64.9726 24.3021 64.9325C24.215 64.8925 24.1375 64.8341 24.0751 64.7613C24.0127 64.6885 23.9668 64.6031 23.9406 64.5109C23.9143 64.4187 23.9084 64.322 23.9232 64.2273C23.9533 64.0659 24.0402 63.9206 24.1682 63.8176C24.2963 63.7146 24.457 63.6607 24.6214 63.6657H45.97L41.88 62.3699L22.3088 56.1525C22.1705 56.1094 22.0501 56.0225 21.9658 55.9048C21.8816 55.7872 21.8381 55.6453 21.842 55.5008C21.846 55.3562 21.897 55.2169 21.9875 55.104C22.078 54.9911 22.2029 54.9108 22.3433 54.8752C22.4231 54.854 24.1479 54.3787 26.2132 52.9701C28.5396 51.3892 30.4126 49.2297 31.6469 46.7048L31.986 46.0078L30.0976 45.4077C29.9496 45.356 29.8246 45.2538 29.7447 45.119C29.6649 44.9843 29.6353 44.8257 29.6613 44.6712C29.6872 44.5168 29.767 44.3765 29.8865 44.2751C30.006 44.1737 30.1576 44.1178 30.3144 44.1172C30.3912 44.1171 30.4675 44.1292 30.5405 44.153L32.4781 44.7691L32.7307 44.2553C34.5526 40.5537 37.8027 38.075 42.1287 37.0859C43.4822 36.782 44.864 36.6218 46.2512 36.6079L46.8138 36.6013L46.9002 36.0463C46.9128 35.9619 46.9314 35.8785 46.956 35.7967L49.4202 28.0644C49.5194 27.7576 49.7051 27.4859 49.9552 27.282C50.2053 27.078 50.509 26.9505 50.8299 26.9147L51.2634 26.8669L59.0869 1.46999C59.1285 1.33381 59.2129 1.2146 59.3276 1.12997C59.4423 1.04534 59.5812 0.999776 59.7239 1H67.4369L67.6364 1.26553C67.6982 1.34958 67.7394 1.44699 67.7565 1.54986C67.7736 1.65274 67.7662 1.75819 67.7348 1.85767L59.1148 29.3522L59.4659 29.6364C59.7265 29.848 59.9176 30.1328 60.0145 30.4539C60.1115 30.7751 60.1098 31.1178 60.0098 31.438L57.5403 39.1703C57.5015 39.2919 57.4489 39.4086 57.3833 39.5182L57.0908 40.0054L57.5283 40.3692C59.6348 42.1151 61.2173 44.1159 62.2319 46.3158C63.3224 48.6817 63.7825 51.3118 63.6003 54.1344L63.5671 54.6522L64.748 55.0266C64.803 55.0443 64.8529 55.075 64.8935 55.1162C64.934 55.1573 64.9639 55.2077 64.9807 55.2629C65.0262 55.3838 65.0419 55.5138 65.0267 55.642C65.0114 55.7702 64.9655 55.8929 64.8929 55.9998C64.8101 56.1105 64.6947 56.1926 64.5629 56.2348C64.4311 56.2769 64.2894 56.2769 64.1575 56.2348L63.3596 55.9812L63.1708 56.6357C62.4545 59.0493 60.9765 61.1673 58.957 62.6745C56.9374 64.1817 54.4843 64.9973 51.9629 65L24.5801 64.9934ZM33.0166 46.9371C31.5067 50.1955 29.0324 52.9132 25.9273 54.7239L24.632 55.4767L48.7926 63.1519C50.2952 63.633 51.8881 63.765 53.4495 63.5376C55.011 63.3103 56.4998 62.7297 57.8022 61.8402C59.7951 60.4922 61.2485 58.4864 61.9074 56.175L62.0817 55.5563L53.7276 52.901L53.5015 53.4825C53.0427 54.6628 52.1358 56.3038 50.4283 57.4164C50.3552 57.4656 50.2731 57.4999 50.1866 57.5171C50.1002 57.5344 50.0112 57.5343 49.9247 57.5169C49.8383 57.4995 49.7563 57.4651 49.6833 57.4157C49.6103 57.3664 49.5479 57.303 49.4997 57.2293C49.4514 57.1557 49.4184 57.0732 49.4024 56.9866C49.3864 56.9001 49.3878 56.8112 49.4065 56.7252C49.4252 56.6392 49.4609 56.5578 49.5114 56.4857C49.5619 56.4135 49.6263 56.3522 49.7008 56.3051C51.0506 55.4262 51.8007 54.1158 52.1996 53.1772L52.4762 52.5133L44.9932 50.1235L44.7272 50.6055C43.8854 52.1562 42.0237 54.943 39.0089 56.1896C38.9286 56.2237 38.8422 56.2413 38.7549 56.2414C38.6034 56.2383 38.4575 56.1836 38.3414 56.0864C38.2253 55.9892 38.1459 55.8553 38.1165 55.7069C38.087 55.5585 38.1091 55.4045 38.1793 55.2704C38.2495 55.1363 38.3634 55.0301 38.5022 54.9695C40.8082 54.0149 42.3801 51.9809 43.2897 50.4422L43.7152 49.7239L33.2587 46.4048L33.0166 46.9371ZM46.5026 37.9449C45.1032 37.9399 43.708 38.0954 42.3442 38.4082C38.5581 39.2925 35.792 41.3291 34.1244 44.4677L33.7494 45.17L62.2771 54.226L62.2998 53.3418C62.4327 47.9435 59.9858 43.5025 55.0242 40.1408L54.9444 40.0864L48.5545 38.0564L48.4947 38.0498C47.8335 37.9724 47.1683 37.9352 46.5026 37.9382V37.9449ZM56.1732 39.0893L58.8395 30.7251L50.782 28.1653L48.1143 36.5296L48.9043 36.7805L48.8817 36.7739L52.3672 37.8812L55.3833 38.8384L56.1732 39.0893ZM52.5108 27.2877L57.8302 28.9765L66.1855 2.32766H60.2013L52.5108 27.2877Z"/>
</mask>
<path d="M24.5801 64.9934C24.4842 64.9934 24.3893 64.9726 24.3021 64.9325C24.215 64.8925 24.1375 64.8341 24.0751 64.7613C24.0127 64.6885 23.9668 64.6031 23.9406 64.5109C23.9143 64.4187 23.9084 64.322 23.9232 64.2273C23.9533 64.0659 24.0402 63.9206 24.1682 63.8176C24.2963 63.7146 24.457 63.6607 24.6214 63.6657H45.97L41.88 62.3699L22.3088 56.1525C22.1705 56.1094 22.0501 56.0225 21.9658 55.9048C21.8816 55.7872 21.8381 55.6453 21.842 55.5008C21.846 55.3562 21.897 55.2169 21.9875 55.104C22.078 54.9911 22.2029 54.9108 22.3433 54.8752C22.4231 54.854 24.1479 54.3787 26.2132 52.9701C28.5396 51.3892 30.4126 49.2297 31.6469 46.7048L31.986 46.0078L30.0976 45.4077C29.9496 45.356 29.8246 45.2538 29.7447 45.119C29.6649 44.9843 29.6353 44.8257 29.6613 44.6712C29.6872 44.5168 29.767 44.3765 29.8865 44.2751C30.006 44.1737 30.1576 44.1178 30.3144 44.1172C30.3912 44.1171 30.4675 44.1292 30.5405 44.153L32.4781 44.7691L32.7307 44.2553C34.5526 40.5537 37.8027 38.075 42.1287 37.0859C43.4822 36.782 44.864 36.6218 46.2512 36.6079L46.8138 36.6013L46.9002 36.0463C46.9128 35.9619 46.9314 35.8785 46.956 35.7967L49.4202 28.0644C49.5194 27.7576 49.7051 27.4859 49.9552 27.282C50.2053 27.078 50.509 26.9505 50.8299 26.9147L51.2634 26.8669L59.0869 1.46999C59.1285 1.33381 59.2129 1.2146 59.3276 1.12997C59.4423 1.04534 59.5812 0.999776 59.7239 1H67.4369L67.6364 1.26553C67.6982 1.34958 67.7394 1.44699 67.7565 1.54986C67.7736 1.65274 67.7662 1.75819 67.7348 1.85767L59.1148 29.3522L59.4659 29.6364C59.7265 29.848 59.9176 30.1328 60.0145 30.4539C60.1115 30.7751 60.1098 31.1178 60.0098 31.438L57.5403 39.1703C57.5015 39.2919 57.4489 39.4086 57.3833 39.5182L57.0908 40.0054L57.5283 40.3692C59.6348 42.1151 61.2173 44.1159 62.2319 46.3158C63.3224 48.6817 63.7825 51.3118 63.6003 54.1344L63.5671 54.6522L64.748 55.0266C64.803 55.0443 64.8529 55.075 64.8935 55.1162C64.934 55.1573 64.9639 55.2077 64.9807 55.2629C65.0262 55.3838 65.0419 55.5138 65.0267 55.642C65.0114 55.7702 64.9655 55.8929 64.8929 55.9998C64.8101 56.1105 64.6947 56.1926 64.5629 56.2348C64.4311 56.2769 64.2894 56.2769 64.1575 56.2348L63.3596 55.9812L63.1708 56.6357C62.4545 59.0493 60.9765 61.1673 58.957 62.6745C56.9374 64.1817 54.4843 64.9973 51.9629 65L24.5801 64.9934ZM33.0166 46.9371C31.5067 50.1955 29.0324 52.9132 25.9273 54.7239L24.632 55.4767L48.7926 63.1519C50.2952 63.633 51.8881 63.765 53.4495 63.5376C55.011 63.3103 56.4998 62.7297 57.8022 61.8402C59.7951 60.4922 61.2485 58.4864 61.9074 56.175L62.0817 55.5563L53.7276 52.901L53.5015 53.4825C53.0427 54.6628 52.1358 56.3038 50.4283 57.4164C50.3552 57.4656 50.2731 57.4999 50.1866 57.5171C50.1002 57.5344 50.0112 57.5343 49.9247 57.5169C49.8383 57.4995 49.7563 57.4651 49.6833 57.4157C49.6103 57.3664 49.5479 57.303 49.4997 57.2293C49.4514 57.1557 49.4184 57.0732 49.4024 56.9866C49.3864 56.9001 49.3878 56.8112 49.4065 56.7252C49.4252 56.6392 49.4609 56.5578 49.5114 56.4857C49.5619 56.4135 49.6263 56.3522 49.7008 56.3051C51.0506 55.4262 51.8007 54.1158 52.1996 53.1772L52.4762 52.5133L44.9932 50.1235L44.7272 50.6055C43.8854 52.1562 42.0237 54.943 39.0089 56.1896C38.9286 56.2237 38.8422 56.2413 38.7549 56.2414C38.6034 56.2383 38.4575 56.1836 38.3414 56.0864C38.2253 55.9892 38.1459 55.8553 38.1165 55.7069C38.087 55.5585 38.1091 55.4045 38.1793 55.2704C38.2495 55.1363 38.3634 55.0301 38.5022 54.9695C40.8082 54.0149 42.3801 51.9809 43.2897 50.4422L43.7152 49.7239L33.2587 46.4048L33.0166 46.9371ZM46.5026 37.9449C45.1032 37.9399 43.708 38.0954 42.3442 38.4082C38.5581 39.2925 35.792 41.3291 34.1244 44.4677L33.7494 45.17L62.2771 54.226L62.2998 53.3418C62.4327 47.9435 59.9858 43.5025 55.0242 40.1408L54.9444 40.0864L48.5545 38.0564L48.4947 38.0498C47.8335 37.9724 47.1683 37.9352 46.5026 37.9382V37.9449ZM56.1732 39.0893L58.8395 30.7251L50.782 28.1653L48.1143 36.5296L48.9043 36.7805L48.8817 36.7739L52.3672 37.8812L55.3833 38.8384L56.1732 39.0893ZM52.5108 27.2877L57.8302 28.9765L66.1855 2.32766H60.2013L52.5108 27.2877Z" fill="#585858"/>
<path d="M24.5801 64.9934C24.4842 64.9934 24.3893 64.9726 24.3021 64.9325C24.215 64.8925 24.1375 64.8341 24.0751 64.7613C24.0127 64.6885 23.9668 64.6031 23.9406 64.5109C23.9143 64.4187 23.9084 64.322 23.9232 64.2273C23.9533 64.0659 24.0402 63.9206 24.1682 63.8176C24.2963 63.7146 24.457 63.6607 24.6214 63.6657H45.97L41.88 62.3699L22.3088 56.1525C22.1705 56.1094 22.0501 56.0225 21.9658 55.9048C21.8816 55.7872 21.8381 55.6453 21.842 55.5008C21.846 55.3562 21.897 55.2169 21.9875 55.104C22.078 54.9911 22.2029 54.9108 22.3433 54.8752C22.4231 54.854 24.1479 54.3787 26.2132 52.9701C28.5396 51.3892 30.4126 49.2297 31.6469 46.7048L31.986 46.0078L30.0976 45.4077C29.9496 45.356 29.8246 45.2538 29.7447 45.119C29.6649 44.9843 29.6353 44.8257 29.6613 44.6712C29.6872 44.5168 29.767 44.3765 29.8865 44.2751C30.006 44.1737 30.1576 44.1178 30.3144 44.1172C30.3912 44.1171 30.4675 44.1292 30.5405 44.153L32.4781 44.7691L32.7307 44.2553C34.5526 40.5537 37.8027 38.075 42.1287 37.0859C43.4822 36.782 44.864 36.6218 46.2512 36.6079L46.8138 36.6013L46.9002 36.0463C46.9128 35.9619 46.9314 35.8785 46.956 35.7967L49.4202 28.0644C49.5194 27.7576 49.7051 27.4859 49.9552 27.282C50.2053 27.078 50.509 26.9505 50.8299 26.9147L51.2634 26.8669L59.0869 1.46999C59.1285 1.33381 59.2129 1.2146 59.3276 1.12997C59.4423 1.04534 59.5812 0.999776 59.7239 1H67.4369L67.6364 1.26553C67.6982 1.34958 67.7394 1.44699 67.7565 1.54986C67.7736 1.65274 67.7662 1.75819 67.7348 1.85767L59.1148 29.3522L59.4659 29.6364C59.7265 29.848 59.9176 30.1328 60.0145 30.4539C60.1115 30.7751 60.1098 31.1178 60.0098 31.438L57.5403 39.1703C57.5015 39.2919 57.4489 39.4086 57.3833 39.5182L57.0908 40.0054L57.5283 40.3692C59.6348 42.1151 61.2173 44.1159 62.2319 46.3158C63.3224 48.6817 63.7825 51.3118 63.6003 54.1344L63.5671 54.6522L64.748 55.0266C64.803 55.0443 64.8529 55.075 64.8935 55.1162C64.934 55.1573 64.9639 55.2077 64.9807 55.2629C65.0262 55.3838 65.0419 55.5138 65.0267 55.642C65.0114 55.7702 64.9655 55.8929 64.8929 55.9998C64.8101 56.1105 64.6947 56.1926 64.5629 56.2348C64.4311 56.2769 64.2894 56.2769 64.1575 56.2348L63.3596 55.9812L63.1708 56.6357C62.4545 59.0493 60.9765 61.1673 58.957 62.6745C56.9374 64.1817 54.4843 64.9973 51.9629 65L24.5801 64.9934ZM33.0166 46.9371C31.5067 50.1955 29.0324 52.9132 25.9273 54.7239L24.632 55.4767L48.7926 63.1519C50.2952 63.633 51.8881 63.765 53.4495 63.5376C55.011 63.3103 56.4998 62.7297 57.8022 61.8402C59.7951 60.4922 61.2485 58.4864 61.9074 56.175L62.0817 55.5563L53.7276 52.901L53.5015 53.4825C53.0427 54.6628 52.1358 56.3038 50.4283 57.4164C50.3552 57.4656 50.2731 57.4999 50.1866 57.5171C50.1002 57.5344 50.0112 57.5343 49.9247 57.5169C49.8383 57.4995 49.7563 57.4651 49.6833 57.4157C49.6103 57.3664 49.5479 57.303 49.4997 57.2293C49.4514 57.1557 49.4184 57.0732 49.4024 56.9866C49.3864 56.9001 49.3878 56.8112 49.4065 56.7252C49.4252 56.6392 49.4609 56.5578 49.5114 56.4857C49.5619 56.4135 49.6263 56.3522 49.7008 56.3051C51.0506 55.4262 51.8007 54.1158 52.1996 53.1772L52.4762 52.5133L44.9932 50.1235L44.7272 50.6055C43.8854 52.1562 42.0237 54.943 39.0089 56.1896C38.9286 56.2237 38.8422 56.2413 38.7549 56.2414C38.6034 56.2383 38.4575 56.1836 38.3414 56.0864C38.2253 55.9892 38.1459 55.8553 38.1165 55.7069C38.087 55.5585 38.1091 55.4045 38.1793 55.2704C38.2495 55.1363 38.3634 55.0301 38.5022 54.9695C40.8082 54.0149 42.3801 51.9809 43.2897 50.4422L43.7152 49.7239L33.2587 46.4048L33.0166 46.9371ZM46.5026 37.9449C45.1032 37.9399 43.708 38.0954 42.3442 38.4082C38.5581 39.2925 35.792 41.3291 34.1244 44.4677L33.7494 45.17L62.2771 54.226L62.2998 53.3418C62.4327 47.9435 59.9858 43.5025 55.0242 40.1408L54.9444 40.0864L48.5545 38.0564L48.4947 38.0498C47.8335 37.9724 47.1683 37.9352 46.5026 37.9382V37.9449ZM56.1732 39.0893L58.8395 30.7251L50.782 28.1653L48.1143 36.5296L48.9043 36.7805L48.8817 36.7739L52.3672 37.8812L55.3833 38.8384L56.1732 39.0893ZM52.5108 27.2877L57.8302 28.9765L66.1855 2.32766H60.2013L52.5108 27.2877Z" stroke="#585858" stroke-width="0.2" mask="url(#path-1-outside-1)"/>
<path d="M4.658 56.2809H4.65794C3.71545 56.2798 2.80866 55.9208 2.1215 55.2767C1.43434 54.6327 1.01826 53.7518 0.957687 52.8127M4.658 56.2809L1.98236 50.113C2.33941 49.7379 2.76933 49.4394 3.24583 49.2358C3.72234 49.0322 4.23543 48.9277 4.75375 48.9288H5.28568M4.658 56.2809H16.0819C16.2581 56.2861 16.4303 56.2284 16.5677 56.1181C16.7052 56.0077 16.7987 55.8518 16.8313 55.6785L16.8313 55.6785L16.8316 55.677C16.8475 55.5752 16.8411 55.4711 16.8129 55.372C16.7847 55.2729 16.7353 55.1811 16.6682 55.1028C16.6011 55.0245 16.5178 54.9617 16.4241 54.9186C16.3304 54.8755 16.2284 54.8532 16.1252 54.8532L4.71119 54.8532L4.71094 54.8532C4.13703 54.8561 3.58237 54.6468 3.15381 54.2658C2.72537 53.8848 2.45326 53.3591 2.38983 52.7899C2.36119 52.4752 2.39847 52.158 2.49929 51.8584C2.60017 51.5587 2.76245 51.2832 2.97582 51.0496C3.18918 50.8159 3.44894 50.6292 3.73857 50.5012C4.02818 50.3733 4.3413 50.3069 4.658 50.3064C4.65802 50.3064 4.65805 50.3064 4.65808 50.3064L5.23797 50.3064C5.41612 50.3147 5.59128 50.2584 5.73122 50.1479C5.87148 50.0372 5.96687 49.8795 5.99975 49.704L5.99977 49.704L6.00001 49.7025C6.01602 49.6 6.00945 49.4952 5.98076 49.3955C5.95207 49.2957 5.90194 49.2035 5.83388 49.125C5.76582 49.0466 5.68147 48.984 5.58669 48.9414C5.492 48.899 5.38919 48.8776 5.28539 48.8788M4.658 56.2809L5.28568 48.9288M0.957687 52.8127L1.00758 52.8095L0.957689 52.8128C0.957689 52.8128 0.957688 52.8127 0.957687 52.8127ZM0.957687 52.8127C0.92515 52.3136 0.996136 51.8132 1.1662 51.3428C1.33627 50.8723 1.60177 50.442 1.94606 50.0786L1.94614 50.0786C2.30788 49.6985 2.74344 49.3961 3.22619 49.1898C3.70892 48.9836 4.22871 48.8777 4.7538 48.8788M4.7538 48.8788C4.75381 48.8788 4.75383 48.8788 4.75385 48.8788L4.75375 48.9287V48.8788H4.7538ZM4.7538 48.8788H5.28539M5.28539 48.8788C5.28529 48.8788 5.28519 48.8788 5.28509 48.8788L5.28568 48.9288M5.28539 48.8788H5.28568V48.9288M16.7822 55.6693C16.7969 55.5746 16.791 55.4779 16.7648 55.3857C16.7386 55.2935 16.6927 55.2081 16.6303 55.1353C16.5679 55.0626 16.4904 55.0041 16.4032 54.9641C16.316 54.924 16.2212 54.9032 16.1252 54.9032H4.71119L16.7822 55.6693ZM16.7822 55.6693C16.7518 55.8308 16.6646 55.9761 16.5364 56.0791C16.4081 56.1821 16.2472 56.2359 16.0827 56.2309L16.7822 55.6693Z" fill="#585858" stroke="#585858" stroke-width="0.1"/>
<path d="M17.2146 28.2556L17.1902 28.2119C17.061 28.284 14.1274 29.9846 14.1272 34.1143C14.1139 35.2676 14.3834 36.4067 14.9124 37.4322C15.4414 38.4577 16.2138 39.3384 17.1621 39.9973L17.1621 39.9974L17.1643 39.9988C17.2777 40.0689 17.4084 40.106 17.5417 40.1059M17.2146 28.2556L17.19 28.212C17.2973 28.1515 17.4185 28.1197 17.5417 28.1197C17.665 28.1197 17.7861 28.1515 17.8934 28.212L17.8689 28.2556M17.2146 28.2556C17.0909 28.3246 14.1772 30.0121 14.1772 34.1146C14.1639 35.2599 14.4316 36.391 14.9568 37.4093C15.4821 38.4275 16.249 39.302 17.1907 39.9563H17.8928C18.8344 39.302 19.6014 38.4275 20.1266 37.4093C20.6519 36.391 20.9196 35.2599 20.9062 34.1146C20.9062 30.0147 17.9925 28.3246 17.8689 28.2556M17.2146 28.2556C17.3144 28.1993 17.4271 28.1697 17.5417 28.1697C17.6564 28.1697 17.7691 28.1993 17.8689 28.2556M17.8689 28.2556L17.8932 28.2119C18.0225 28.2841 20.9561 29.9872 20.9562 34.1143C20.9696 35.2676 20.7 36.4067 20.1711 37.4322C19.6421 38.4577 18.8697 39.3384 17.9213 39.9973L17.9192 39.9989L17.9191 39.9988C17.8058 40.0689 17.6751 40.106 17.5417 40.1059M17.5417 40.1059C17.5417 40.1059 17.5417 40.1059 17.5417 40.1059L17.5417 40.0559L17.5418 40.1059C17.5418 40.1059 17.5418 40.1059 17.5417 40.1059ZM15.5571 34.1165H15.5571V34.1159C15.5571 32.1161 16.3958 30.8335 17.0975 30.1106L17.539 29.6576L17.9806 30.1133L17.9806 30.1133L17.9812 30.1138C18.1032 30.2357 18.2203 30.3696 18.3311 30.5079C19.1227 31.5073 19.5264 32.7202 19.5264 34.1159L19.5264 34.1165C19.5436 35.5829 18.9946 36.9997 17.9932 38.0727L18.0283 38.1055L17.9932 38.0727L17.5418 38.5566L17.0916 38.0728L17.0915 38.0727C16.0891 37.0003 15.5395 35.5832 15.5571 34.1165Z" fill="#585858" stroke="#585858" stroke-width="0.1"/>
<path d="M30.0453 20.3143L30.045 20.3146L30.045 20.3146C29.4135 20.934 28.9112 21.6722 28.5671 22.4864C28.223 23.3007 28.0438 24.1749 28.0399 25.0586V25.6723L28.6547 25.6723L28.6548 25.6723M30.0453 20.3143L35.5009 18.8796C35.5248 19.8912 35.2908 21.8655 33.4489 23.7029C32.8233 24.3393 32.0774 24.8455 31.2545 25.1921C30.4316 25.5388 29.548 25.719 28.6548 25.7223V25.6723M30.0453 20.3143C31.7283 18.6341 33.5112 18.2817 34.7096 18.2817H34.8513L34.8508 18.2816L34.8519 18.2317V18.2817L35.4361 18.2951M30.0453 20.3143L35.4509 18.8807M28.6548 25.6723C29.5413 25.669 30.4183 25.4901 31.2351 25.1461C32.0519 24.802 32.7923 24.2996 33.4133 23.6679L33.4136 23.6676C35.243 21.8425 35.4746 19.8831 35.4509 18.8807M28.6548 25.6723L35.4509 18.8807M35.4361 18.2951L35.4509 18.8807M35.4361 18.2951L35.4838 18.2962L35.4849 18.2463L35.4349 18.2475L35.4361 18.2951ZM27.2763 26.9672L27.2763 26.9672L34.3838 24.6443C37.6725 21.3623 36.6964 17.6886 36.6538 17.5346C36.6233 17.4245 36.5647 17.3241 36.4839 17.2431C36.4031 17.1622 36.3026 17.1034 36.1924 17.0726C35.7064 16.9571 35.2079 16.9022 34.7083 16.9093V16.8593C34.7082 16.8593 34.7081 16.8593 34.7079 16.8593C33.235 16.8594 31.0564 17.2849 29.0344 19.3035C25.8596 22.4732 26.7061 26.2709 26.7444 26.4347C26.7746 26.5641 26.8404 26.6825 26.9344 26.7766C27.0284 26.8707 27.1468 26.9367 27.2763 26.9672ZM31.7735 26.4731C32.767 26.0584 33.6668 25.4484 34.4193 24.6794L28.6362 27.0434L28.636 27.0933C28.6361 27.0933 28.6363 27.0934 28.6365 27.0934C29.7132 27.0987 30.78 26.8878 31.7735 26.4731Z" fill="#585858" stroke="#585858" stroke-width="0.1"/>
<path d="M14.8421 49.2442H14.8421H18.658C18.834 49.2494 19.0061 49.1916 19.1432 49.0813C19.2806 48.9708 19.3738 48.8149 19.4061 48.6418L19.4061 48.6418L19.4063 48.6403C19.4222 48.5385 19.4159 48.4345 19.3877 48.3353C19.3595 48.2362 19.3101 48.1444 19.243 48.0661C19.1759 47.9878 19.0926 47.925 18.9989 47.8819C18.9051 47.8388 18.8032 47.8165 18.7 47.8165H14.8854C14.7093 47.8113 14.537 47.869 14.3997 47.9793C14.2621 48.0898 14.1686 48.2457 14.136 48.4189L14.136 48.4189L14.1358 48.4204C14.1199 48.5222 14.1263 48.6263 14.1544 48.7254C14.1826 48.8245 14.232 48.9164 14.2991 48.9946C14.3662 49.0729 14.4495 49.1357 14.5433 49.1788C14.637 49.2219 14.7389 49.2442 14.8421 49.2442Z" fill="#585858" stroke="#585858" stroke-width="0.1"/>
<path d="M18.397 64.9288C18.4854 64.9725 18.5811 64.9992 18.6791 65.0076V65.0129L18.7292 65.0129C18.8664 65.0127 19 64.9689 19.1107 64.8879C19.2343 64.8005 19.3268 64.6761 19.375 64.5327C19.4232 64.3892 19.4245 64.2341 19.3786 64.0898C19.3328 63.9456 19.2422 63.8196 19.12 63.7301C18.9977 63.6406 18.8502 63.5922 18.6986 63.5918H18.6985H18.652V63.5917L18.6479 63.592C18.4952 63.6044 18.3502 63.6649 18.2342 63.7649C18.1182 63.8649 18.0369 63.999 18.0023 64.148C17.9783 64.2462 17.9775 64.3486 18 64.4471C18.0225 64.5456 18.0676 64.6375 18.1318 64.7156C18.2035 64.8051 18.294 64.8779 18.397 64.9288Z" fill="#585858" stroke="#585858" stroke-width="0.1"/>
</svg>
