<svg width="56" height="56" viewBox="0 0 56 56" fill="none" xmlns="http://www.w3.org/2000/svg">
<circle cx="28" cy="28" r="27" stroke="#FFC400" stroke-width="2"/>
<path d="M32.5 16H23.5C19.3585 16 16 19.3585 16 23.5V32.5C16 36.6415 19.3585 40 23.5 40H32.5C36.6415 40 40 36.6415 40 32.5V23.5C40 19.3585 36.6415 16 32.5 16ZM37.75 32.5C37.75 35.395 35.395 37.75 32.5 37.75H23.5C20.605 37.75 18.25 35.395 18.25 32.5V23.5C18.25 20.605 20.605 18.25 23.5 18.25H32.5C35.395 18.25 37.75 20.605 37.75 23.5V32.5Z" fill="black"/>
<path d="M28 22C24.6865 22 22 24.6865 22 28C22 31.3135 24.6865 34 28 34C31.3135 34 34 31.3135 34 28C34 24.6865 31.3135 22 28 22ZM28 31.75C25.933 31.75 24.25 30.067 24.25 28C24.25 25.9315 25.933 24.25 28 24.25C30.067 24.25 31.75 25.9315 31.75 28C31.75 30.067 30.067 31.75 28 31.75Z" fill="black"/>
<path d="M34.4499 22.3495C34.8914 22.3495 35.2494 21.9915 35.2494 21.55C35.2494 21.1084 34.8914 20.7505 34.4499 20.7505C34.0083 20.7505 33.6504 21.1084 33.6504 21.55C33.6504 21.9915 34.0083 22.3495 34.4499 22.3495Z" fill="black"/>
</svg>
