<svg width="56" height="56" viewBox="0 0 56 56" fill="none" xmlns="http://www.w3.org/2000/svg">
<circle cx="28" cy="28" r="27" stroke="#FFC400" stroke-width="2"/>
<g clip-path="url(#clip0)">
<path d="M40 21.3686C39.1447 21.7438 38.2333 21.9924 37.2831 22.1132C38.2606 21.5296 39.0067 20.6124 39.3574 19.507C38.4461 20.0504 37.4398 20.4342 36.3674 20.6484C35.5021 19.7269 34.2687 19.1562 32.9232 19.1562C30.3127 19.1562 28.2111 21.2751 28.2111 23.8727C28.2111 24.2464 28.2427 24.6058 28.3203 24.9479C24.4003 24.7567 20.9316 22.8779 18.6014 20.0159C18.1946 20.7217 17.9559 21.5296 17.9559 22.3993C17.9559 24.0323 18.7969 25.4798 20.0504 26.3179C19.2928 26.3035 18.5496 26.0836 17.92 25.7371C17.92 25.7515 17.92 25.7702 17.92 25.7889C17.92 28.0802 19.5544 29.9835 21.6977 30.4219C21.3139 30.5269 20.8956 30.5772 20.4615 30.5772C20.1596 30.5772 19.8549 30.5599 19.5688 30.4967C20.1797 32.364 21.9134 33.7368 23.9748 33.7814C22.3705 35.0363 20.3336 35.7924 18.1284 35.7924C17.7418 35.7924 17.3709 35.7752 17 35.7277C19.0887 37.0747 21.5641 37.8438 24.2335 37.8438C32.9102 37.8438 37.654 30.6562 37.654 24.4261C37.654 24.2177 37.6468 24.0164 37.6367 23.8166C38.5726 23.1525 39.3589 22.3231 40 21.3686Z" fill="black"/>
</g>
<defs>
<clipPath id="clip0">
<rect x="17" y="17" width="23" height="23" fill="white"/>
</clipPath>
</defs>
</svg>
