<svg width="55" height="60" viewBox="0 0 55 60" fill="none" xmlns="http://www.w3.org/2000/svg">
<path d="M19.684 28.9906V27.4966H23.068V40.5106H21.412V28.9906H19.684ZM31.2816 34.2466L35.1336 40.5106H33.2796L30.2736 35.6146L27.4116 40.5106H25.5936L29.4276 34.2466L25.5756 27.9646H27.4116L30.4356 32.8786L33.3156 27.9646H35.1516L31.2816 34.2466Z" fill="#585858"/>
<path d="M42.8302 13.2598C42.4164 12.894 42.3775 12.2621 42.7433 11.8483C43.1092 11.4345 43.7411 11.3956 44.1549 11.7614L42.8302 13.2598ZM11.4242 54.3953C10.9726 54.0772 10.8644 53.4534 11.1824 53.0019C11.5005 52.5503 12.1243 52.4421 12.5758 52.7601L11.4242 54.3953ZM44.1549 11.7614C51.348 18.1206 54.6193 25.1411 54.9685 31.8514C55.317 38.5477 52.7491 44.8168 48.4833 49.6745C39.9709 59.3683 24.5106 63.6125 11.4242 54.3953L12.5758 52.7601C24.6835 61.288 39.02 57.4201 46.9805 48.3549C50.9513 43.8331 53.289 38.0609 52.9712 31.9554C52.6542 25.864 49.6876 19.3222 42.8302 13.2598L44.1549 11.7614Z" fill="#585858"/>
<path d="M23.9626 16.2943C23.6513 16.1171 23.4648 15.7816 23.4791 15.424L23.4791 9.48205C17.4461 10.3512 11.9363 13.386 7.97722 18.02C4.18701 22.441 1.99555 27.9916 1.99555 33.2498C1.99555 36.678 2.91109 40.2635 4.66051 43.6199C6.48001 47.1066 9.07212 50.1314 12.2398 52.4619C12.6808 52.7858 12.7751 53.4056 12.4517 53.846C12.1278 54.2869 11.5081 54.3813 11.0677 54.0573C7.65383 51.5469 4.85973 48.2892 2.8984 44.5327C1.00274 40.8965 1.19694e-06 36.9948 1.07576e-06 33.2493C8.90601e-07 27.5264 2.38296 21.5061 6.47614 16.7325C10.8133 11.6636 16.8667 8.37004 23.4791 7.48209L23.4791 0.991047C23.462 0.632887 23.6491 0.295697 23.962 0.120203C24.2755 -0.0547381 24.6607 -0.0376302 24.957 0.164353L35.9513 7.38055C36.2283 7.56487 36.3944 7.87667 36.3933 8.20945C36.3917 8.54278 36.2234 8.85237 35.9447 9.03449L24.9581 16.2512C24.6607 16.4505 24.2766 16.467 23.9626 16.2943V16.2943ZM33.6671 8.20779L25.457 2.82214L25.457 13.5929L33.6671 8.20779Z" fill="#585858"/>
</svg>
