<svg width="220" height="292" viewBox="0 0 220 292" fill="none" xmlns="http://www.w3.org/2000/svg">
<g opacity="0.2">
<circle cx="2" cy="2" r="2" fill="#585858"/>
<circle cx="14" cy="2" r="2" fill="#585858"/>
<circle cx="26" cy="2" r="2" fill="#585858"/>
<circle cx="38" cy="2" r="2" fill="#585858"/>
<circle cx="50" cy="2" r="2" fill="#585858"/>
<circle cx="62" cy="2" r="2" fill="#585858"/>
<circle cx="74" cy="2" r="2" fill="#585858"/>
<circle cx="86" cy="2" r="2" fill="#585858"/>
<circle cx="98" cy="2" r="2" fill="#585858"/>
<circle cx="110" cy="2" r="2" fill="#585858"/>
<circle cx="122" cy="2" r="2" fill="#585858"/>
<circle cx="134" cy="2" r="2" fill="#585858"/>
<circle cx="146" cy="2" r="2" fill="#585858"/>
<circle cx="158" cy="2" r="2" fill="#585858"/>
<circle cx="170" cy="2" r="2" fill="#585858"/>
<circle cx="182" cy="2" r="2" fill="#585858"/>
<circle cx="194" cy="2" r="2" fill="#585858"/>
<circle cx="206" cy="2" r="2" fill="#585858"/>
<circle cx="218" cy="2" r="2" fill="#585858"/>
<circle cx="2" cy="14" r="2" fill="#585858"/>
<circle cx="14" cy="14" r="2" fill="#585858"/>
<circle cx="26" cy="14" r="2" fill="#585858"/>
<circle cx="38" cy="14" r="2" fill="#585858"/>
<circle cx="50" cy="14" r="2" fill="#585858"/>
<circle cx="62" cy="14" r="2" fill="#585858"/>
<circle cx="74" cy="14" r="2" fill="#585858"/>
<circle cx="86" cy="14" r="2" fill="#585858"/>
<circle cx="98" cy="14" r="2" fill="#585858"/>
<circle cx="110" cy="14" r="2" fill="#585858"/>
<circle cx="122" cy="14" r="2" fill="#585858"/>
<circle cx="134" cy="14" r="2" fill="#585858"/>
<circle cx="146" cy="14" r="2" fill="#585858"/>
<circle cx="158" cy="14" r="2" fill="#585858"/>
<circle cx="170" cy="14" r="2" fill="#585858"/>
<circle cx="182" cy="14" r="2" fill="#585858"/>
<circle cx="194" cy="14" r="2" fill="#585858"/>
<circle cx="206" cy="14" r="2" fill="#585858"/>
<circle cx="218" cy="14" r="2" fill="#585858"/>
<circle cx="2" cy="26" r="2" fill="#585858"/>
<circle cx="14" cy="26" r="2" fill="#585858"/>
<circle cx="26" cy="26" r="2" fill="#585858"/>
<circle cx="38" cy="26" r="2" fill="#585858"/>
<circle cx="50" cy="26" r="2" fill="#585858"/>
<circle cx="62" cy="26" r="2" fill="#585858"/>
<circle cx="74" cy="26" r="2" fill="#585858"/>
<circle cx="86" cy="26" r="2" fill="#585858"/>
<circle cx="98" cy="26" r="2" fill="#585858"/>
<circle cx="110" cy="26" r="2" fill="#585858"/>
<circle cx="122" cy="26" r="2" fill="#585858"/>
<circle cx="134" cy="26" r="2" fill="#585858"/>
<circle cx="146" cy="26" r="2" fill="#585858"/>
<circle cx="158" cy="26" r="2" fill="#585858"/>
<circle cx="170" cy="26" r="2" fill="#585858"/>
<circle cx="182" cy="26" r="2" fill="#585858"/>
<circle cx="194" cy="26" r="2" fill="#585858"/>
<circle cx="206" cy="26" r="2" fill="#585858"/>
<circle cx="218" cy="26" r="2" fill="#585858"/>
<circle cx="2" cy="38" r="2" fill="#585858"/>
<circle cx="14" cy="38" r="2" fill="#585858"/>
<circle cx="26" cy="38" r="2" fill="#585858"/>
<circle cx="38" cy="38" r="2" fill="#585858"/>
<circle cx="50" cy="38" r="2" fill="#585858"/>
<circle cx="62" cy="38" r="2" fill="#585858"/>
<circle cx="74" cy="38" r="2" fill="#585858"/>
<circle cx="86" cy="38" r="2" fill="#585858"/>
<circle cx="98" cy="38" r="2" fill="#585858"/>
<circle cx="110" cy="38" r="2" fill="#585858"/>
<circle cx="122" cy="38" r="2" fill="#585858"/>
<circle cx="134" cy="38" r="2" fill="#585858"/>
<circle cx="146" cy="38" r="2" fill="#585858"/>
<circle cx="158" cy="38" r="2" fill="#585858"/>
<circle cx="170" cy="38" r="2" fill="#585858"/>
<circle cx="182" cy="38" r="2" fill="#585858"/>
<circle cx="194" cy="38" r="2" fill="#585858"/>
<circle cx="206" cy="38" r="2" fill="#585858"/>
<circle cx="218" cy="38" r="2" fill="#585858"/>
<circle cx="2" cy="50" r="2" fill="#585858"/>
<circle cx="14" cy="50" r="2" fill="#585858"/>
<circle cx="26" cy="50" r="2" fill="#585858"/>
<circle cx="38" cy="50" r="2" fill="#585858"/>
<circle cx="50" cy="50" r="2" fill="#585858"/>
<circle cx="62" cy="50" r="2" fill="#585858"/>
<circle cx="74" cy="50" r="2" fill="#585858"/>
<circle cx="86" cy="50" r="2" fill="#585858"/>
<circle cx="98" cy="50" r="2" fill="#585858"/>
<circle cx="110" cy="50" r="2" fill="#585858"/>
<circle cx="122" cy="50" r="2" fill="#585858"/>
<circle cx="134" cy="50" r="2" fill="#585858"/>
<circle cx="146" cy="50" r="2" fill="#585858"/>
<circle cx="158" cy="50" r="2" fill="#585858"/>
<circle cx="170" cy="50" r="2" fill="#585858"/>
<circle cx="182" cy="50" r="2" fill="#585858"/>
<circle cx="194" cy="50" r="2" fill="#585858"/>
<circle cx="206" cy="50" r="2" fill="#585858"/>
<circle cx="218" cy="50" r="2" fill="#585858"/>
<circle cx="2" cy="62" r="2" fill="#585858"/>
<circle cx="14" cy="62" r="2" fill="#585858"/>
<circle cx="26" cy="62" r="2" fill="#585858"/>
<circle cx="38" cy="62" r="2" fill="#585858"/>
<circle cx="50" cy="62" r="2" fill="#585858"/>
<circle cx="62" cy="62" r="2" fill="#585858"/>
<circle cx="74" cy="62" r="2" fill="#585858"/>
<circle cx="86" cy="62" r="2" fill="#585858"/>
<circle cx="98" cy="62" r="2" fill="#585858"/>
<circle cx="110" cy="62" r="2" fill="#585858"/>
<circle cx="122" cy="62" r="2" fill="#585858"/>
<circle cx="134" cy="62" r="2" fill="#585858"/>
<circle cx="146" cy="62" r="2" fill="#585858"/>
<circle cx="158" cy="62" r="2" fill="#585858"/>
<circle cx="170" cy="62" r="2" fill="#585858"/>
<circle cx="182" cy="62" r="2" fill="#585858"/>
<circle cx="194" cy="62" r="2" fill="#585858"/>
<circle cx="206" cy="62" r="2" fill="#585858"/>
<circle cx="218" cy="62" r="2" fill="#585858"/>
<circle cx="2" cy="74" r="2" fill="#585858"/>
<circle cx="14" cy="74" r="2" fill="#585858"/>
<circle cx="26" cy="74" r="2" fill="#585858"/>
<circle cx="38" cy="74" r="2" fill="#585858"/>
<circle cx="50" cy="74" r="2" fill="#585858"/>
<circle cx="62" cy="74" r="2" fill="#585858"/>
<circle cx="74" cy="74" r="2" fill="#585858"/>
<circle cx="86" cy="74" r="2" fill="#585858"/>
<circle cx="98" cy="74" r="2" fill="#585858"/>
<circle cx="110" cy="74" r="2" fill="#585858"/>
<circle cx="122" cy="74" r="2" fill="#585858"/>
<circle cx="134" cy="74" r="2" fill="#585858"/>
<circle cx="146" cy="74" r="2" fill="#585858"/>
<circle cx="158" cy="74" r="2" fill="#585858"/>
<circle cx="170" cy="74" r="2" fill="#585858"/>
<circle cx="182" cy="74" r="2" fill="#585858"/>
<circle cx="194" cy="74" r="2" fill="#585858"/>
<circle cx="206" cy="74" r="2" fill="#585858"/>
<circle cx="218" cy="74" r="2" fill="#585858"/>
<circle cx="2" cy="26" r="2" fill="#585858"/>
<circle cx="14" cy="26" r="2" fill="#585858"/>
<circle cx="26" cy="26" r="2" fill="#585858"/>
<circle cx="38" cy="26" r="2" fill="#585858"/>
<circle cx="50" cy="26" r="2" fill="#585858"/>
<circle cx="62" cy="26" r="2" fill="#585858"/>
<circle cx="74" cy="26" r="2" fill="#585858"/>
<circle cx="86" cy="26" r="2" fill="#585858"/>
<circle cx="98" cy="26" r="2" fill="#585858"/>
<circle cx="110" cy="26" r="2" fill="#585858"/>
<circle cx="122" cy="26" r="2" fill="#585858"/>
<circle cx="134" cy="26" r="2" fill="#585858"/>
<circle cx="146" cy="26" r="2" fill="#585858"/>
<circle cx="158" cy="26" r="2" fill="#585858"/>
<circle cx="170" cy="26" r="2" fill="#585858"/>
<circle cx="182" cy="26" r="2" fill="#585858"/>
<circle cx="194" cy="26" r="2" fill="#585858"/>
<circle cx="206" cy="26" r="2" fill="#585858"/>
<circle cx="218" cy="26" r="2" fill="#585858"/>
<circle cx="2" cy="26" r="2" fill="#585858"/>
<circle cx="14" cy="26" r="2" fill="#585858"/>
<circle cx="26" cy="26" r="2" fill="#585858"/>
<circle cx="38" cy="26" r="2" fill="#585858"/>
<circle cx="50" cy="26" r="2" fill="#585858"/>
<circle cx="62" cy="26" r="2" fill="#585858"/>
<circle cx="74" cy="26" r="2" fill="#585858"/>
<circle cx="86" cy="26" r="2" fill="#585858"/>
<circle cx="98" cy="26" r="2" fill="#585858"/>
<circle cx="110" cy="26" r="2" fill="#585858"/>
<circle cx="122" cy="26" r="2" fill="#585858"/>
<circle cx="134" cy="26" r="2" fill="#585858"/>
<circle cx="146" cy="26" r="2" fill="#585858"/>
<circle cx="158" cy="26" r="2" fill="#585858"/>
<circle cx="170" cy="26" r="2" fill="#585858"/>
<circle cx="182" cy="26" r="2" fill="#585858"/>
<circle cx="194" cy="26" r="2" fill="#585858"/>
<circle cx="206" cy="26" r="2" fill="#585858"/>
<circle cx="218" cy="26" r="2" fill="#585858"/>
<circle cx="2" cy="86" r="2" fill="#585858"/>
<circle cx="14" cy="86" r="2" fill="#585858"/>
<circle cx="26" cy="86" r="2" fill="#585858"/>
<circle cx="38" cy="86" r="2" fill="#585858"/>
<circle cx="50" cy="86" r="2" fill="#585858"/>
<circle cx="62" cy="86" r="2" fill="#585858"/>
<circle cx="74" cy="86" r="2" fill="#585858"/>
<circle cx="86" cy="86" r="2" fill="#585858"/>
<circle cx="98" cy="86" r="2" fill="#585858"/>
<circle cx="110" cy="86" r="2" fill="#585858"/>
<circle cx="122" cy="86" r="2" fill="#585858"/>
<circle cx="134" cy="86" r="2" fill="#585858"/>
<circle cx="146" cy="86" r="2" fill="#585858"/>
<circle cx="158" cy="86" r="2" fill="#585858"/>
<circle cx="170" cy="86" r="2" fill="#585858"/>
<circle cx="182" cy="86" r="2" fill="#585858"/>
<circle cx="194" cy="86" r="2" fill="#585858"/>
<circle cx="206" cy="86" r="2" fill="#585858"/>
<circle cx="218" cy="86" r="2" fill="#585858"/>
<circle cx="2" cy="26" r="2" fill="#585858"/>
<circle cx="14" cy="26" r="2" fill="#585858"/>
<circle cx="26" cy="26" r="2" fill="#585858"/>
<circle cx="38" cy="26" r="2" fill="#585858"/>
<circle cx="50" cy="26" r="2" fill="#585858"/>
<circle cx="62" cy="26" r="2" fill="#585858"/>
<circle cx="74" cy="26" r="2" fill="#585858"/>
<circle cx="86" cy="26" r="2" fill="#585858"/>
<circle cx="98" cy="26" r="2" fill="#585858"/>
<circle cx="110" cy="26" r="2" fill="#585858"/>
<circle cx="122" cy="26" r="2" fill="#585858"/>
<circle cx="134" cy="26" r="2" fill="#585858"/>
<circle cx="146" cy="26" r="2" fill="#585858"/>
<circle cx="158" cy="26" r="2" fill="#585858"/>
<circle cx="170" cy="26" r="2" fill="#585858"/>
<circle cx="182" cy="26" r="2" fill="#585858"/>
<circle cx="194" cy="26" r="2" fill="#585858"/>
<circle cx="206" cy="26" r="2" fill="#585858"/>
<circle cx="218" cy="26" r="2" fill="#585858"/>
<circle cx="2" cy="26" r="2" fill="#585858"/>
<circle cx="14" cy="26" r="2" fill="#585858"/>
<circle cx="26" cy="26" r="2" fill="#585858"/>
<circle cx="38" cy="26" r="2" fill="#585858"/>
<circle cx="50" cy="26" r="2" fill="#585858"/>
<circle cx="62" cy="26" r="2" fill="#585858"/>
<circle cx="74" cy="26" r="2" fill="#585858"/>
<circle cx="86" cy="26" r="2" fill="#585858"/>
<circle cx="98" cy="26" r="2" fill="#585858"/>
<circle cx="110" cy="26" r="2" fill="#585858"/>
<circle cx="122" cy="26" r="2" fill="#585858"/>
<circle cx="134" cy="26" r="2" fill="#585858"/>
<circle cx="146" cy="26" r="2" fill="#585858"/>
<circle cx="158" cy="26" r="2" fill="#585858"/>
<circle cx="170" cy="26" r="2" fill="#585858"/>
<circle cx="182" cy="26" r="2" fill="#585858"/>
<circle cx="194" cy="26" r="2" fill="#585858"/>
<circle cx="206" cy="26" r="2" fill="#585858"/>
<circle cx="218" cy="26" r="2" fill="#585858"/>
<circle cx="2" cy="98" r="2" fill="#585858"/>
<circle cx="14" cy="98" r="2" fill="#585858"/>
<circle cx="26" cy="98" r="2" fill="#585858"/>
<circle cx="38" cy="98" r="2" fill="#585858"/>
<circle cx="50" cy="98" r="2" fill="#585858"/>
<circle cx="62" cy="98" r="2" fill="#585858"/>
<circle cx="74" cy="98" r="2" fill="#585858"/>
<circle cx="86" cy="98" r="2" fill="#585858"/>
<circle cx="98" cy="98" r="2" fill="#585858"/>
<circle cx="110" cy="98" r="2" fill="#585858"/>
<circle cx="122" cy="98" r="2" fill="#585858"/>
<circle cx="134" cy="98" r="2" fill="#585858"/>
<circle cx="146" cy="98" r="2" fill="#585858"/>
<circle cx="158" cy="98" r="2" fill="#585858"/>
<circle cx="170" cy="98" r="2" fill="#585858"/>
<circle cx="182" cy="98" r="2" fill="#585858"/>
<circle cx="194" cy="98" r="2" fill="#585858"/>
<circle cx="206" cy="98" r="2" fill="#585858"/>
<circle cx="218" cy="98" r="2" fill="#585858"/>
<circle cx="2" cy="26" r="2" fill="#585858"/>
<circle cx="14" cy="26" r="2" fill="#585858"/>
<circle cx="26" cy="26" r="2" fill="#585858"/>
<circle cx="38" cy="26" r="2" fill="#585858"/>
<circle cx="50" cy="26" r="2" fill="#585858"/>
<circle cx="62" cy="26" r="2" fill="#585858"/>
<circle cx="74" cy="26" r="2" fill="#585858"/>
<circle cx="86" cy="26" r="2" fill="#585858"/>
<circle cx="98" cy="26" r="2" fill="#585858"/>
<circle cx="110" cy="26" r="2" fill="#585858"/>
<circle cx="122" cy="26" r="2" fill="#585858"/>
<circle cx="134" cy="26" r="2" fill="#585858"/>
<circle cx="146" cy="26" r="2" fill="#585858"/>
<circle cx="158" cy="26" r="2" fill="#585858"/>
<circle cx="170" cy="26" r="2" fill="#585858"/>
<circle cx="182" cy="26" r="2" fill="#585858"/>
<circle cx="194" cy="26" r="2" fill="#585858"/>
<circle cx="206" cy="26" r="2" fill="#585858"/>
<circle cx="218" cy="26" r="2" fill="#585858"/>
<circle cx="2" cy="110" r="2" fill="#585858"/>
<circle cx="14" cy="110" r="2" fill="#585858"/>
<circle cx="26" cy="110" r="2" fill="#585858"/>
<circle cx="38" cy="110" r="2" fill="#585858"/>
<circle cx="50" cy="110" r="2" fill="#585858"/>
<circle cx="62" cy="110" r="2" fill="#585858"/>
<circle cx="74" cy="110" r="2" fill="#585858"/>
<circle cx="86" cy="110" r="2" fill="#585858"/>
<circle cx="98" cy="110" r="2" fill="#585858"/>
<circle cx="110" cy="110" r="2" fill="#585858"/>
<circle cx="122" cy="110" r="2" fill="#585858"/>
<circle cx="134" cy="110" r="2" fill="#585858"/>
<circle cx="146" cy="110" r="2" fill="#585858"/>
<circle cx="158" cy="110" r="2" fill="#585858"/>
<circle cx="170" cy="110" r="2" fill="#585858"/>
<circle cx="182" cy="110" r="2" fill="#585858"/>
<circle cx="194" cy="110" r="2" fill="#585858"/>
<circle cx="206" cy="110" r="2" fill="#585858"/>
<circle cx="218" cy="110" r="2" fill="#585858"/>
<circle cx="2" cy="26" r="2" fill="#585858"/>
<circle cx="14" cy="26" r="2" fill="#585858"/>
<circle cx="26" cy="26" r="2" fill="#585858"/>
<circle cx="38" cy="26" r="2" fill="#585858"/>
<circle cx="50" cy="26" r="2" fill="#585858"/>
<circle cx="62" cy="26" r="2" fill="#585858"/>
<circle cx="74" cy="26" r="2" fill="#585858"/>
<circle cx="86" cy="26" r="2" fill="#585858"/>
<circle cx="98" cy="26" r="2" fill="#585858"/>
<circle cx="110" cy="26" r="2" fill="#585858"/>
<circle cx="122" cy="26" r="2" fill="#585858"/>
<circle cx="134" cy="26" r="2" fill="#585858"/>
<circle cx="146" cy="26" r="2" fill="#585858"/>
<circle cx="158" cy="26" r="2" fill="#585858"/>
<circle cx="170" cy="26" r="2" fill="#585858"/>
<circle cx="182" cy="26" r="2" fill="#585858"/>
<circle cx="194" cy="26" r="2" fill="#585858"/>
<circle cx="206" cy="26" r="2" fill="#585858"/>
<circle cx="218" cy="26" r="2" fill="#585858"/>
<circle cx="2" cy="122" r="2" fill="#585858"/>
<circle cx="14" cy="122" r="2" fill="#585858"/>
<circle cx="26" cy="122" r="2" fill="#585858"/>
<circle cx="38" cy="122" r="2" fill="#585858"/>
<circle cx="50" cy="122" r="2" fill="#585858"/>
<circle cx="62" cy="122" r="2" fill="#585858"/>
<circle cx="74" cy="122" r="2" fill="#585858"/>
<circle cx="86" cy="122" r="2" fill="#585858"/>
<circle cx="98" cy="122" r="2" fill="#585858"/>
<circle cx="110" cy="122" r="2" fill="#585858"/>
<circle cx="122" cy="122" r="2" fill="#585858"/>
<circle cx="134" cy="122" r="2" fill="#585858"/>
<circle cx="146" cy="122" r="2" fill="#585858"/>
<circle cx="158" cy="122" r="2" fill="#585858"/>
<circle cx="170" cy="122" r="2" fill="#585858"/>
<circle cx="182" cy="122" r="2" fill="#585858"/>
<circle cx="194" cy="122" r="2" fill="#585858"/>
<circle cx="206" cy="122" r="2" fill="#585858"/>
<circle cx="218" cy="122" r="2" fill="#585858"/>
<circle cx="2" cy="26" r="2" fill="#585858"/>
<circle cx="14" cy="26" r="2" fill="#585858"/>
<circle cx="26" cy="26" r="2" fill="#585858"/>
<circle cx="38" cy="26" r="2" fill="#585858"/>
<circle cx="50" cy="26" r="2" fill="#585858"/>
<circle cx="62" cy="26" r="2" fill="#585858"/>
<circle cx="74" cy="26" r="2" fill="#585858"/>
<circle cx="86" cy="26" r="2" fill="#585858"/>
<circle cx="98" cy="26" r="2" fill="#585858"/>
<circle cx="110" cy="26" r="2" fill="#585858"/>
<circle cx="122" cy="26" r="2" fill="#585858"/>
<circle cx="134" cy="26" r="2" fill="#585858"/>
<circle cx="146" cy="26" r="2" fill="#585858"/>
<circle cx="158" cy="26" r="2" fill="#585858"/>
<circle cx="170" cy="26" r="2" fill="#585858"/>
<circle cx="182" cy="26" r="2" fill="#585858"/>
<circle cx="194" cy="26" r="2" fill="#585858"/>
<circle cx="206" cy="26" r="2" fill="#585858"/>
<circle cx="218" cy="26" r="2" fill="#585858"/>
<circle cx="2" cy="26" r="2" fill="#585858"/>
<circle cx="14" cy="26" r="2" fill="#585858"/>
<circle cx="26" cy="26" r="2" fill="#585858"/>
<circle cx="38" cy="26" r="2" fill="#585858"/>
<circle cx="50" cy="26" r="2" fill="#585858"/>
<circle cx="62" cy="26" r="2" fill="#585858"/>
<circle cx="74" cy="26" r="2" fill="#585858"/>
<circle cx="86" cy="26" r="2" fill="#585858"/>
<circle cx="98" cy="26" r="2" fill="#585858"/>
<circle cx="110" cy="26" r="2" fill="#585858"/>
<circle cx="122" cy="26" r="2" fill="#585858"/>
<circle cx="134" cy="26" r="2" fill="#585858"/>
<circle cx="146" cy="26" r="2" fill="#585858"/>
<circle cx="158" cy="26" r="2" fill="#585858"/>
<circle cx="170" cy="26" r="2" fill="#585858"/>
<circle cx="182" cy="26" r="2" fill="#585858"/>
<circle cx="194" cy="26" r="2" fill="#585858"/>
<circle cx="206" cy="26" r="2" fill="#585858"/>
<circle cx="218" cy="26" r="2" fill="#585858"/>
<circle cx="2" cy="134" r="2" fill="#585858"/>
<circle cx="14" cy="134" r="2" fill="#585858"/>
<circle cx="26" cy="134" r="2" fill="#585858"/>
<circle cx="38" cy="134" r="2" fill="#585858"/>
<circle cx="50" cy="134" r="2" fill="#585858"/>
<circle cx="62" cy="134" r="2" fill="#585858"/>
<circle cx="74" cy="134" r="2" fill="#585858"/>
<circle cx="86" cy="134" r="2" fill="#585858"/>
<circle cx="98" cy="134" r="2" fill="#585858"/>
<circle cx="110" cy="134" r="2" fill="#585858"/>
<circle cx="122" cy="134" r="2" fill="#585858"/>
<circle cx="134" cy="134" r="2" fill="#585858"/>
<circle cx="146" cy="134" r="2" fill="#585858"/>
<circle cx="158" cy="134" r="2" fill="#585858"/>
<circle cx="170" cy="134" r="2" fill="#585858"/>
<circle cx="182" cy="134" r="2" fill="#585858"/>
<circle cx="194" cy="134" r="2" fill="#585858"/>
<circle cx="206" cy="134" r="2" fill="#585858"/>
<circle cx="218" cy="134" r="2" fill="#585858"/>
<circle cx="2" cy="146" r="2" fill="#585858"/>
<circle cx="14" cy="146" r="2" fill="#585858"/>
<circle cx="26" cy="146" r="2" fill="#585858"/>
<circle cx="38" cy="146" r="2" fill="#585858"/>
<circle cx="50" cy="146" r="2" fill="#585858"/>
<circle cx="62" cy="146" r="2" fill="#585858"/>
<circle cx="74" cy="146" r="2" fill="#585858"/>
<circle cx="86" cy="146" r="2" fill="#585858"/>
<circle cx="98" cy="146" r="2" fill="#585858"/>
<circle cx="110" cy="146" r="2" fill="#585858"/>
<circle cx="122" cy="146" r="2" fill="#585858"/>
<circle cx="134" cy="146" r="2" fill="#585858"/>
<circle cx="146" cy="146" r="2" fill="#585858"/>
<circle cx="158" cy="146" r="2" fill="#585858"/>
<circle cx="170" cy="146" r="2" fill="#585858"/>
<circle cx="182" cy="146" r="2" fill="#585858"/>
<circle cx="194" cy="146" r="2" fill="#585858"/>
<circle cx="206" cy="146" r="2" fill="#585858"/>
<circle cx="218" cy="146" r="2" fill="#585858"/>
<circle cx="2" cy="158" r="2" fill="#585858"/>
<circle cx="14" cy="158" r="2" fill="#585858"/>
<circle cx="26" cy="158" r="2" fill="#585858"/>
<circle cx="38" cy="158" r="2" fill="#585858"/>
<circle cx="50" cy="158" r="2" fill="#585858"/>
<circle cx="62" cy="158" r="2" fill="#585858"/>
<circle cx="74" cy="158" r="2" fill="#585858"/>
<circle cx="86" cy="158" r="2" fill="#585858"/>
<circle cx="98" cy="158" r="2" fill="#585858"/>
<circle cx="110" cy="158" r="2" fill="#585858"/>
<circle cx="122" cy="158" r="2" fill="#585858"/>
<circle cx="134" cy="158" r="2" fill="#585858"/>
<circle cx="146" cy="158" r="2" fill="#585858"/>
<circle cx="158" cy="158" r="2" fill="#585858"/>
<circle cx="170" cy="158" r="2" fill="#585858"/>
<circle cx="182" cy="158" r="2" fill="#585858"/>
<circle cx="194" cy="158" r="2" fill="#585858"/>
<circle cx="206" cy="158" r="2" fill="#585858"/>
<circle cx="218" cy="158" r="2" fill="#585858"/>
<circle cx="2" cy="170" r="2" fill="#585858"/>
<circle cx="14" cy="170" r="2" fill="#585858"/>
<circle cx="26" cy="170" r="2" fill="#585858"/>
<circle cx="38" cy="170" r="2" fill="#585858"/>
<circle cx="50" cy="170" r="2" fill="#585858"/>
<circle cx="62" cy="170" r="2" fill="#585858"/>
<circle cx="74" cy="170" r="2" fill="#585858"/>
<circle cx="86" cy="170" r="2" fill="#585858"/>
<circle cx="98" cy="170" r="2" fill="#585858"/>
<circle cx="110" cy="170" r="2" fill="#585858"/>
<circle cx="122" cy="170" r="2" fill="#585858"/>
<circle cx="134" cy="170" r="2" fill="#585858"/>
<circle cx="146" cy="170" r="2" fill="#585858"/>
<circle cx="158" cy="170" r="2" fill="#585858"/>
<circle cx="170" cy="170" r="2" fill="#585858"/>
<circle cx="182" cy="170" r="2" fill="#585858"/>
<circle cx="194" cy="170" r="2" fill="#585858"/>
<circle cx="206" cy="170" r="2" fill="#585858"/>
<circle cx="218" cy="170" r="2" fill="#585858"/>
<circle cx="2" cy="182" r="2" fill="#585858"/>
<circle cx="14" cy="182" r="2" fill="#585858"/>
<circle cx="26" cy="182" r="2" fill="#585858"/>
<circle cx="38" cy="182" r="2" fill="#585858"/>
<circle cx="50" cy="182" r="2" fill="#585858"/>
<circle cx="62" cy="182" r="2" fill="#585858"/>
<circle cx="74" cy="182" r="2" fill="#585858"/>
<circle cx="86" cy="182" r="2" fill="#585858"/>
<circle cx="98" cy="182" r="2" fill="#585858"/>
<circle cx="110" cy="182" r="2" fill="#585858"/>
<circle cx="122" cy="182" r="2" fill="#585858"/>
<circle cx="134" cy="182" r="2" fill="#585858"/>
<circle cx="146" cy="182" r="2" fill="#585858"/>
<circle cx="158" cy="182" r="2" fill="#585858"/>
<circle cx="170" cy="182" r="2" fill="#585858"/>
<circle cx="182" cy="182" r="2" fill="#585858"/>
<circle cx="194" cy="182" r="2" fill="#585858"/>
<circle cx="206" cy="182" r="2" fill="#585858"/>
<circle cx="218" cy="182" r="2" fill="#585858"/>
<circle cx="2" cy="26" r="2" fill="#585858"/>
<circle cx="14" cy="26" r="2" fill="#585858"/>
<circle cx="26" cy="26" r="2" fill="#585858"/>
<circle cx="38" cy="26" r="2" fill="#585858"/>
<circle cx="50" cy="26" r="2" fill="#585858"/>
<circle cx="62" cy="26" r="2" fill="#585858"/>
<circle cx="74" cy="26" r="2" fill="#585858"/>
<circle cx="86" cy="26" r="2" fill="#585858"/>
<circle cx="98" cy="26" r="2" fill="#585858"/>
<circle cx="110" cy="26" r="2" fill="#585858"/>
<circle cx="122" cy="26" r="2" fill="#585858"/>
<circle cx="134" cy="26" r="2" fill="#585858"/>
<circle cx="146" cy="26" r="2" fill="#585858"/>
<circle cx="158" cy="26" r="2" fill="#585858"/>
<circle cx="170" cy="26" r="2" fill="#585858"/>
<circle cx="182" cy="26" r="2" fill="#585858"/>
<circle cx="194" cy="26" r="2" fill="#585858"/>
<circle cx="206" cy="26" r="2" fill="#585858"/>
<circle cx="218" cy="26" r="2" fill="#585858"/>
<circle cx="2" cy="194" r="2" fill="#585858"/>
<circle cx="14" cy="194" r="2" fill="#585858"/>
<circle cx="26" cy="194" r="2" fill="#585858"/>
<circle cx="38" cy="194" r="2" fill="#585858"/>
<circle cx="50" cy="194" r="2" fill="#585858"/>
<circle cx="62" cy="194" r="2" fill="#585858"/>
<circle cx="74" cy="194" r="2" fill="#585858"/>
<circle cx="86" cy="194" r="2" fill="#585858"/>
<circle cx="98" cy="194" r="2" fill="#585858"/>
<circle cx="110" cy="194" r="2" fill="#585858"/>
<circle cx="122" cy="194" r="2" fill="#585858"/>
<circle cx="134" cy="194" r="2" fill="#585858"/>
<circle cx="146" cy="194" r="2" fill="#585858"/>
<circle cx="158" cy="194" r="2" fill="#585858"/>
<circle cx="170" cy="194" r="2" fill="#585858"/>
<circle cx="182" cy="194" r="2" fill="#585858"/>
<circle cx="194" cy="194" r="2" fill="#585858"/>
<circle cx="206" cy="194" r="2" fill="#585858"/>
<circle cx="218" cy="194" r="2" fill="#585858"/>
<circle cx="2" cy="206" r="2" fill="#585858"/>
<circle cx="14" cy="206" r="2" fill="#585858"/>
<circle cx="26" cy="206" r="2" fill="#585858"/>
<circle cx="38" cy="206" r="2" fill="#585858"/>
<circle cx="50" cy="206" r="2" fill="#585858"/>
<circle cx="62" cy="206" r="2" fill="#585858"/>
<circle cx="74" cy="206" r="2" fill="#585858"/>
<circle cx="86" cy="206" r="2" fill="#585858"/>
<circle cx="98" cy="206" r="2" fill="#585858"/>
<circle cx="110" cy="206" r="2" fill="#585858"/>
<circle cx="122" cy="206" r="2" fill="#585858"/>
<circle cx="134" cy="206" r="2" fill="#585858"/>
<circle cx="146" cy="206" r="2" fill="#585858"/>
<circle cx="158" cy="206" r="2" fill="#585858"/>
<circle cx="170" cy="206" r="2" fill="#585858"/>
<circle cx="182" cy="206" r="2" fill="#585858"/>
<circle cx="194" cy="206" r="2" fill="#585858"/>
<circle cx="206" cy="206" r="2" fill="#585858"/>
<circle cx="218" cy="206" r="2" fill="#585858"/>
<circle cx="2" cy="26" r="2" fill="#585858"/>
<circle cx="14" cy="26" r="2" fill="#585858"/>
<circle cx="26" cy="26" r="2" fill="#585858"/>
<circle cx="38" cy="26" r="2" fill="#585858"/>
<circle cx="50" cy="26" r="2" fill="#585858"/>
<circle cx="62" cy="26" r="2" fill="#585858"/>
<circle cx="74" cy="26" r="2" fill="#585858"/>
<circle cx="86" cy="26" r="2" fill="#585858"/>
<circle cx="98" cy="26" r="2" fill="#585858"/>
<circle cx="110" cy="26" r="2" fill="#585858"/>
<circle cx="122" cy="26" r="2" fill="#585858"/>
<circle cx="134" cy="26" r="2" fill="#585858"/>
<circle cx="146" cy="26" r="2" fill="#585858"/>
<circle cx="158" cy="26" r="2" fill="#585858"/>
<circle cx="170" cy="26" r="2" fill="#585858"/>
<circle cx="182" cy="26" r="2" fill="#585858"/>
<circle cx="194" cy="26" r="2" fill="#585858"/>
<circle cx="206" cy="26" r="2" fill="#585858"/>
<circle cx="218" cy="26" r="2" fill="#585858"/>
<circle cx="2" cy="218" r="2" fill="#585858"/>
<circle cx="14" cy="218" r="2" fill="#585858"/>
<circle cx="26" cy="218" r="2" fill="#585858"/>
<circle cx="38" cy="218" r="2" fill="#585858"/>
<circle cx="50" cy="218" r="2" fill="#585858"/>
<circle cx="62" cy="218" r="2" fill="#585858"/>
<circle cx="74" cy="218" r="2" fill="#585858"/>
<circle cx="86" cy="218" r="2" fill="#585858"/>
<circle cx="98" cy="218" r="2" fill="#585858"/>
<circle cx="110" cy="218" r="2" fill="#585858"/>
<circle cx="122" cy="218" r="2" fill="#585858"/>
<circle cx="134" cy="218" r="2" fill="#585858"/>
<circle cx="146" cy="218" r="2" fill="#585858"/>
<circle cx="158" cy="218" r="2" fill="#585858"/>
<circle cx="170" cy="218" r="2" fill="#585858"/>
<circle cx="182" cy="218" r="2" fill="#585858"/>
<circle cx="194" cy="218" r="2" fill="#585858"/>
<circle cx="206" cy="218" r="2" fill="#585858"/>
<circle cx="218" cy="218" r="2" fill="#585858"/>
<circle cx="2" cy="230" r="2" fill="#585858"/>
<circle cx="14" cy="230" r="2" fill="#585858"/>
<circle cx="26" cy="230" r="2" fill="#585858"/>
<circle cx="38" cy="230" r="2" fill="#585858"/>
<circle cx="50" cy="230" r="2" fill="#585858"/>
<circle cx="62" cy="230" r="2" fill="#585858"/>
<circle cx="74" cy="230" r="2" fill="#585858"/>
<circle cx="86" cy="230" r="2" fill="#585858"/>
<circle cx="98" cy="230" r="2" fill="#585858"/>
<circle cx="110" cy="230" r="2" fill="#585858"/>
<circle cx="122" cy="230" r="2" fill="#585858"/>
<circle cx="134" cy="230" r="2" fill="#585858"/>
<circle cx="146" cy="230" r="2" fill="#585858"/>
<circle cx="158" cy="230" r="2" fill="#585858"/>
<circle cx="170" cy="230" r="2" fill="#585858"/>
<circle cx="182" cy="230" r="2" fill="#585858"/>
<circle cx="194" cy="230" r="2" fill="#585858"/>
<circle cx="206" cy="230" r="2" fill="#585858"/>
<circle cx="218" cy="230" r="2" fill="#585858"/>
<circle cx="2" cy="242" r="2" fill="#585858"/>
<circle cx="14" cy="242" r="2" fill="#585858"/>
<circle cx="26" cy="242" r="2" fill="#585858"/>
<circle cx="38" cy="242" r="2" fill="#585858"/>
<circle cx="50" cy="242" r="2" fill="#585858"/>
<circle cx="62" cy="242" r="2" fill="#585858"/>
<circle cx="74" cy="242" r="2" fill="#585858"/>
<circle cx="86" cy="242" r="2" fill="#585858"/>
<circle cx="98" cy="242" r="2" fill="#585858"/>
<circle cx="110" cy="242" r="2" fill="#585858"/>
<circle cx="122" cy="242" r="2" fill="#585858"/>
<circle cx="134" cy="242" r="2" fill="#585858"/>
<circle cx="146" cy="242" r="2" fill="#585858"/>
<circle cx="158" cy="242" r="2" fill="#585858"/>
<circle cx="170" cy="242" r="2" fill="#585858"/>
<circle cx="182" cy="242" r="2" fill="#585858"/>
<circle cx="194" cy="242" r="2" fill="#585858"/>
<circle cx="206" cy="242" r="2" fill="#585858"/>
<circle cx="218" cy="242" r="2" fill="#585858"/>
<circle cx="2" cy="26" r="2" fill="#585858"/>
<circle cx="14" cy="26" r="2" fill="#585858"/>
<circle cx="26" cy="26" r="2" fill="#585858"/>
<circle cx="38" cy="26" r="2" fill="#585858"/>
<circle cx="50" cy="26" r="2" fill="#585858"/>
<circle cx="62" cy="26" r="2" fill="#585858"/>
<circle cx="74" cy="26" r="2" fill="#585858"/>
<circle cx="86" cy="26" r="2" fill="#585858"/>
<circle cx="98" cy="26" r="2" fill="#585858"/>
<circle cx="110" cy="26" r="2" fill="#585858"/>
<circle cx="122" cy="26" r="2" fill="#585858"/>
<circle cx="134" cy="26" r="2" fill="#585858"/>
<circle cx="146" cy="26" r="2" fill="#585858"/>
<circle cx="158" cy="26" r="2" fill="#585858"/>
<circle cx="170" cy="26" r="2" fill="#585858"/>
<circle cx="182" cy="26" r="2" fill="#585858"/>
<circle cx="194" cy="26" r="2" fill="#585858"/>
<circle cx="206" cy="26" r="2" fill="#585858"/>
<circle cx="218" cy="26" r="2" fill="#585858"/>
<circle cx="2" cy="254" r="2" fill="#585858"/>
<circle cx="14" cy="254" r="2" fill="#585858"/>
<circle cx="26" cy="254" r="2" fill="#585858"/>
<circle cx="38" cy="254" r="2" fill="#585858"/>
<circle cx="50" cy="254" r="2" fill="#585858"/>
<circle cx="62" cy="254" r="2" fill="#585858"/>
<circle cx="74" cy="254" r="2" fill="#585858"/>
<circle cx="86" cy="254" r="2" fill="#585858"/>
<circle cx="98" cy="254" r="2" fill="#585858"/>
<circle cx="110" cy="254" r="2" fill="#585858"/>
<circle cx="122" cy="254" r="2" fill="#585858"/>
<circle cx="134" cy="254" r="2" fill="#585858"/>
<circle cx="146" cy="254" r="2" fill="#585858"/>
<circle cx="158" cy="254" r="2" fill="#585858"/>
<circle cx="170" cy="254" r="2" fill="#585858"/>
<circle cx="182" cy="254" r="2" fill="#585858"/>
<circle cx="194" cy="254" r="2" fill="#585858"/>
<circle cx="206" cy="254" r="2" fill="#585858"/>
<circle cx="218" cy="254" r="2" fill="#585858"/>
<circle cx="2" cy="26" r="2" fill="#585858"/>
<circle cx="14" cy="26" r="2" fill="#585858"/>
<circle cx="26" cy="26" r="2" fill="#585858"/>
<circle cx="38" cy="26" r="2" fill="#585858"/>
<circle cx="50" cy="26" r="2" fill="#585858"/>
<circle cx="62" cy="26" r="2" fill="#585858"/>
<circle cx="74" cy="26" r="2" fill="#585858"/>
<circle cx="86" cy="26" r="2" fill="#585858"/>
<circle cx="98" cy="26" r="2" fill="#585858"/>
<circle cx="110" cy="26" r="2" fill="#585858"/>
<circle cx="122" cy="26" r="2" fill="#585858"/>
<circle cx="134" cy="26" r="2" fill="#585858"/>
<circle cx="146" cy="26" r="2" fill="#585858"/>
<circle cx="158" cy="26" r="2" fill="#585858"/>
<circle cx="170" cy="26" r="2" fill="#585858"/>
<circle cx="182" cy="26" r="2" fill="#585858"/>
<circle cx="194" cy="26" r="2" fill="#585858"/>
<circle cx="206" cy="26" r="2" fill="#585858"/>
<circle cx="218" cy="26" r="2" fill="#585858"/>
<circle cx="2" cy="26" r="2" fill="#585858"/>
<circle cx="14" cy="26" r="2" fill="#585858"/>
<circle cx="26" cy="26" r="2" fill="#585858"/>
<circle cx="38" cy="26" r="2" fill="#585858"/>
<circle cx="50" cy="26" r="2" fill="#585858"/>
<circle cx="62" cy="26" r="2" fill="#585858"/>
<circle cx="74" cy="26" r="2" fill="#585858"/>
<circle cx="86" cy="26" r="2" fill="#585858"/>
<circle cx="98" cy="26" r="2" fill="#585858"/>
<circle cx="110" cy="26" r="2" fill="#585858"/>
<circle cx="122" cy="26" r="2" fill="#585858"/>
<circle cx="134" cy="26" r="2" fill="#585858"/>
<circle cx="146" cy="26" r="2" fill="#585858"/>
<circle cx="158" cy="26" r="2" fill="#585858"/>
<circle cx="170" cy="26" r="2" fill="#585858"/>
<circle cx="182" cy="26" r="2" fill="#585858"/>
<circle cx="194" cy="26" r="2" fill="#585858"/>
<circle cx="206" cy="26" r="2" fill="#585858"/>
<circle cx="218" cy="26" r="2" fill="#585858"/>
<circle cx="2" cy="266" r="2" fill="#585858"/>
<circle cx="14" cy="266" r="2" fill="#585858"/>
<circle cx="26" cy="266" r="2" fill="#585858"/>
<circle cx="38" cy="266" r="2" fill="#585858"/>
<circle cx="50" cy="266" r="2" fill="#585858"/>
<circle cx="62" cy="266" r="2" fill="#585858"/>
<circle cx="74" cy="266" r="2" fill="#585858"/>
<circle cx="86" cy="266" r="2" fill="#585858"/>
<circle cx="98" cy="266" r="2" fill="#585858"/>
<circle cx="110" cy="266" r="2" fill="#585858"/>
<circle cx="122" cy="266" r="2" fill="#585858"/>
<circle cx="134" cy="266" r="2" fill="#585858"/>
<circle cx="146" cy="266" r="2" fill="#585858"/>
<circle cx="158" cy="266" r="2" fill="#585858"/>
<circle cx="170" cy="266" r="2" fill="#585858"/>
<circle cx="182" cy="266" r="2" fill="#585858"/>
<circle cx="194" cy="266" r="2" fill="#585858"/>
<circle cx="206" cy="266" r="2" fill="#585858"/>
<circle cx="218" cy="266" r="2" fill="#585858"/>
<circle cx="2" cy="278" r="2" fill="#585858"/>
<circle cx="14" cy="278" r="2" fill="#585858"/>
<circle cx="26" cy="278" r="2" fill="#585858"/>
<circle cx="38" cy="278" r="2" fill="#585858"/>
<circle cx="50" cy="278" r="2" fill="#585858"/>
<circle cx="62" cy="278" r="2" fill="#585858"/>
<circle cx="74" cy="278" r="2" fill="#585858"/>
<circle cx="86" cy="278" r="2" fill="#585858"/>
<circle cx="98" cy="278" r="2" fill="#585858"/>
<circle cx="110" cy="278" r="2" fill="#585858"/>
<circle cx="122" cy="278" r="2" fill="#585858"/>
<circle cx="134" cy="278" r="2" fill="#585858"/>
<circle cx="146" cy="278" r="2" fill="#585858"/>
<circle cx="158" cy="278" r="2" fill="#585858"/>
<circle cx="170" cy="278" r="2" fill="#585858"/>
<circle cx="182" cy="278" r="2" fill="#585858"/>
<circle cx="194" cy="278" r="2" fill="#585858"/>
<circle cx="206" cy="278" r="2" fill="#585858"/>
<circle cx="218" cy="278" r="2" fill="#585858"/>
<circle cx="2" cy="290" r="2" fill="#585858"/>
<circle cx="14" cy="290" r="2" fill="#585858"/>
<circle cx="26" cy="290" r="2" fill="#585858"/>
<circle cx="38" cy="290" r="2" fill="#585858"/>
<circle cx="50" cy="290" r="2" fill="#585858"/>
<circle cx="62" cy="290" r="2" fill="#585858"/>
<circle cx="74" cy="290" r="2" fill="#585858"/>
<circle cx="86" cy="290" r="2" fill="#585858"/>
<circle cx="98" cy="290" r="2" fill="#585858"/>
<circle cx="110" cy="290" r="2" fill="#585858"/>
<circle cx="122" cy="290" r="2" fill="#585858"/>
<circle cx="134" cy="290" r="2" fill="#585858"/>
<circle cx="146" cy="290" r="2" fill="#585858"/>
<circle cx="158" cy="290" r="2" fill="#585858"/>
<circle cx="170" cy="290" r="2" fill="#585858"/>
<circle cx="182" cy="290" r="2" fill="#585858"/>
<circle cx="194" cy="290" r="2" fill="#585858"/>
<circle cx="206" cy="290" r="2" fill="#585858"/>
<circle cx="218" cy="290" r="2" fill="#585858"/>
</g>
</svg>
