<svg width="108" height="20" viewBox="0 0 108 20" fill="none" xmlns="http://www.w3.org/2000/svg">
<path d="M10 1L13 7L19 7.75L14.88 12.37L16 19L10 16L4 19L5.13 12.37L1 7.75L7 7L10 1Z" fill="white"/>
<path d="M32 1L35 7L41 7.75L36.88 12.37L38 19L32 16L26 19L27.13 12.37L23 7.75L29 7L32 1Z" fill="white"/>
<path d="M54 1L57 7L63 7.75L58.88 12.37L60 19L54 16L48 19L49.13 12.37L45 7.75L51 7L54 1Z" fill="white"/>
<path d="M76 1L79 7L85 7.75L80.88 12.37L82 19L76 16L70 19L71.13 12.37L67 7.75L73 7L76 1Z" fill="white"/>
<path d="M98 1L101 7L107 7.75L102.88 12.37L104 19L98 16L92 19L93.13 12.37L89 7.75L95 7L98 1Z" fill="white"/>
</svg>
