<svg width="66" height="56" viewBox="0 0 66 56" fill="none" xmlns="http://www.w3.org/2000/svg">
<g opacity="0.75">
<path d="M58.6683 20.0575C58.4867 19.7789 58.1779 19.6105 57.8466 19.6105C57.5152 19.6105 57.2059 19.7789 57.0243 20.0575L49.8517 31.0601C49.6531 31.3769 49.6372 31.7753 49.8089 32.1075C49.9762 32.4359 50.307 32.6478 50.6734 32.6622H56.58C55.6815 38.6631 52.6695 44.1399 48.0931 48.0929C43.6994 51.8831 38.1817 54.0392 32.9553 54.0392C29.5478 54.0392 25.984 53.106 22.649 51.3566C19.1828 49.5343 16.1763 46.9389 13.8604 43.7685C13.54 43.3275 12.9257 43.2315 12.488 43.5532C12.0497 43.875 11.9542 44.4931 12.274 44.934C14.7693 48.3473 18.0073 51.1414 21.74 53.1022C25.3549 54.9978 29.233 56 32.9553 56C38.6436 56 44.6275 53.6877 49.3723 49.5945C54.382 45.2629 57.6513 39.2432 58.5673 32.6622H65.0191C65.385 32.6456 65.7147 32.4348 65.8842 32.1081C66.0531 31.7814 66.0372 31.389 65.8414 31.0778L58.6683 20.0575ZM52.4934 30.6843L57.846 22.4736L63.1991 30.6843H52.4934Z" fill="black"/>
<path d="M16.1958 23.9626C16.0197 23.6513 15.6862 23.4648 15.3308 23.4791H9.42476C10.2887 17.4461 13.3051 11.9363 17.9111 7.97722C22.3054 4.187 27.8225 1.99555 33.0489 1.99555C36.4564 1.99555 40.0202 2.91109 43.3563 4.66051C46.822 6.48001 49.8285 9.07212 52.1449 12.2398C52.4669 12.6808 53.0829 12.7751 53.5206 12.4517C53.9589 12.1278 54.0527 11.5081 53.7307 11.0677C51.2354 7.65382 47.9975 4.85973 44.2636 2.8984C40.6493 1.00274 36.7712 0 33.0484 0C27.3601 0 21.3762 2.38296 16.6314 6.47614C11.5931 10.8133 8.31947 16.8667 7.43688 23.4791H0.985061C0.629064 23.462 0.293911 23.6491 0.119478 23.962C-0.0544059 24.2755 -0.0374014 24.6607 0.163361 24.957L7.33595 35.9513C7.51916 36.2283 7.82908 36.3944 8.15985 36.3933C8.49116 36.3917 8.79889 36.2234 8.9799 35.9447L16.153 24.9581C16.3511 24.6607 16.3675 24.2766 16.1958 23.9626V23.9626ZM8.1582 33.6671L2.80509 25.457H13.5108L8.1582 33.6671Z" fill="black"/>
</g>
</svg>
