<svg width="20" height="23" viewBox="0 0 20 23" fill="none" xmlns="http://www.w3.org/2000/svg">
<g clip-path="url(#clip0)">
<path d="M10.0044 6.29429C7.1651 6.29429 4.87493 8.58447 4.87493 11.4238C4.87493 14.263 7.1651 16.5532 10.0044 16.5532C12.8437 16.5532 15.1338 14.263 15.1338 11.4238C15.1338 8.58447 12.8437 6.29429 10.0044 6.29429ZM10.0044 14.7586C8.16957 14.7586 6.66957 13.263 6.66957 11.4238C6.66957 9.58447 8.1651 8.08894 10.0044 8.08894C11.8437 8.08894 13.3392 9.58447 13.3392 11.4238C13.3392 13.263 11.8392 14.7586 10.0044 14.7586V14.7586ZM16.5401 6.08447C16.5401 6.74965 16.0044 7.2809 15.3437 7.2809C14.6785 7.2809 14.1472 6.74519 14.1472 6.08447C14.1472 5.42376 14.683 4.88804 15.3437 4.88804C16.0044 4.88804 16.5401 5.42376 16.5401 6.08447ZM19.9374 7.29876C19.8615 5.69608 19.4955 4.27644 18.3213 3.10679C17.1517 1.93715 15.7321 1.57108 14.1294 1.49072C12.4776 1.39697 7.52671 1.39697 5.87493 1.49072C4.27671 1.56662 2.85707 1.93269 1.68296 3.10233C0.508859 4.27197 0.147252 5.69162 0.0668945 7.29429C-0.0268554 8.94608 -0.0268554 13.897 0.0668945 15.5488C0.142787 17.1514 0.508859 18.5711 1.68296 19.7407C2.85707 20.9104 4.27225 21.2764 5.87493 21.3568C7.52671 21.4505 12.4776 21.4505 14.1294 21.3568C15.7321 21.2809 17.1517 20.9148 18.3213 19.7407C19.491 18.5711 19.8571 17.1514 19.9374 15.5488C20.0312 13.897 20.0312 8.95054 19.9374 7.29876V7.29876ZM17.8035 17.3211C17.4553 18.1961 16.7812 18.8702 15.9017 19.2229C14.5847 19.7452 11.4597 19.6247 10.0044 19.6247C8.54903 19.6247 5.41957 19.7407 4.10707 19.2229C3.23207 18.8747 2.55796 18.2005 2.20529 17.3211C1.68296 16.0041 1.8035 12.8791 1.8035 11.4238C1.8035 9.9684 1.68743 6.83894 2.20529 5.52644C2.5535 4.65144 3.22761 3.97733 4.10707 3.62465C5.42403 3.10233 8.54903 3.22287 10.0044 3.22287C11.4597 3.22287 14.5892 3.10679 15.9017 3.62465C16.7767 3.97287 17.4508 4.64697 17.8035 5.52644C18.3258 6.8434 18.2053 9.9684 18.2053 11.4238C18.2053 12.8791 18.3258 16.0086 17.8035 17.3211Z" fill="#9A9A9A"/>
</g>
<defs>
<clipPath id="clip0">
<rect width="20" height="22.8571" fill="white"/>
</clipPath>
</defs>
</svg>
