<svg width="20" height="23" viewBox="0 0 20 23" fill="none" xmlns="http://www.w3.org/2000/svg">
<path d="M17.8571 1.42871H2.14286C0.959821 1.42871 0 2.38853 0 3.57157V19.2859C0 20.4689 0.959821 21.4287 2.14286 21.4287H17.8571C19.0402 21.4287 20 20.4689 20 19.2859V3.57157C20 2.38853 19.0402 1.42871 17.8571 1.42871ZM15.6741 8.518C15.683 8.643 15.683 8.77246 15.683 8.89746C15.683 12.768 12.7366 17.2278 7.35268 17.2278C5.69196 17.2278 4.15179 16.7457 2.85714 15.9153C3.09375 15.9421 3.32143 15.951 3.5625 15.951C4.93304 15.951 6.19196 15.4867 7.19643 14.701C5.91071 14.6742 4.83036 13.8305 4.45982 12.6698C4.91071 12.7367 5.31696 12.7367 5.78125 12.6162C4.44196 12.3439 3.4375 11.1653 3.4375 9.74121V9.7055C3.82589 9.92425 4.28125 10.0582 4.75893 10.076C4.35733 9.8089 4.02812 9.44651 3.80066 9.02119C3.5732 8.59587 3.45457 8.12086 3.45536 7.63853C3.45536 7.09389 3.59821 6.59389 3.85268 6.16085C5.29464 7.93764 7.45982 9.09835 9.88839 9.22335C9.47321 7.23675 10.9598 5.62514 12.7455 5.62514C13.5893 5.62514 14.3482 5.97782 14.8839 6.54925C15.5446 6.42425 16.1786 6.17871 16.7411 5.84389C16.5223 6.52246 16.0625 7.09389 15.4554 7.4555C16.0446 7.393 16.6161 7.22782 17.1429 7.00014C16.7455 7.58496 16.2455 8.10282 15.6741 8.518Z" fill="#9A9A9A"/>
</svg>
