<svg width="20" height="15" viewBox="0 0 20 15" fill="none" xmlns="http://www.w3.org/2000/svg">
<path d="M17.9615 0H1.73076C1.46433 0 1.21491 0.0655001 0.989258 0.173462L9.80768 8.99188L11.7842 7.09238C11.7842 7.09238 11.7843 7.09219 11.7844 7.09211C11.7844 7.09204 11.7846 7.09196 11.7846 7.09196L18.7033 0.173615C18.4776 0.0655769 18.228 0 17.9615 0Z" fill="white"/>
<path d="M19.5191 0.989502L13.0082 7.50004L19.5189 14.0107C19.6269 13.785 19.6924 13.5356 19.6924 13.2692V1.73073C19.6924 1.46446 19.627 1.21508 19.5191 0.989502Z" fill="white"/>
<path d="M0.173462 0.989258C0.0655 1.21491 0 1.46433 0 1.73076V13.2692C0 13.5355 0.0654231 13.7849 0.173308 14.0105L6.68419 7.49999L0.173462 0.989258Z" fill="white"/>
<path d="M12.1923 8.31587L10.2156 10.2156C10.1029 10.3283 9.95526 10.3846 9.80768 10.3846C9.66011 10.3846 9.51245 10.3283 9.3998 10.2156L7.49995 8.3158L0.988953 14.8264C1.21464 14.9344 1.46422 15 1.73072 15H17.9615C18.2279 15 18.4773 14.9345 18.703 14.8265L12.1923 8.31587Z" fill="white"/>
</svg>
